SplineFontDB: 3.0
FontName: Experiment-Latin
FullName: Experiment-Latin
FamilyName: Experiment-Latin
Weight: Regular
Copyright: Copyright (c) 2015, Pathum Egodawatta
UComments: "2015-9-29: Created with FontForge (http://fontforge.org)"
Version: 0.001
ItalicAngle: 0
UnderlinePosition: 100
UnderlineWidth: 49
Ascent: 1000
Descent: 0
InvalidEm: 0
LayerCount: 3
Layer: 0 0 "Back" 1
Layer: 1 0 "Fore" 0
Layer: 2 0 "Back 2" 1
PreferredKerning: 4
XUID: [1021 779 -1439063335 14876943]
FSType: 0
OS2Version: 0
OS2_WeightWidthSlopeOnly: 0
OS2_UseTypoMetrics: 1
CreationTime: 1443542790
ModificationTime: 1468067294
PfmFamily: 17
TTFWeight: 400
TTFWidth: 5
LineGap: 122
VLineGap: 0
OS2TypoAscent: 129
OS2TypoAOffset: 1
OS2TypoDescent: 0
OS2TypoDOffset: 1
OS2TypoLinegap: 122
OS2WinAscent: 129
OS2WinAOffset: 1
OS2WinDescent: -161
OS2WinDOffset: 1
HheadAscent: 29
HheadAOffset: 1
HheadDescent: 183
HheadDOffset: 1
OS2Vendor: 'PfEd'
Lookup: 1 0 0 "'smcp' Lowercase to Small Capitals in Latin lookup 0" { "'smcp' Lowercase to Small Capitals in Latin lookup 0-1"  } ['smcp' ('DFLT' <'dflt' > 'latn' <'dflt' > ) ]
Lookup: 258 0 0 "'kern' Horizontal Kerning lookup 0" { "'kern' Horizontal Kerning lookup 0-1" [150,15,0] } ['kern' ('DFLT' <'dflt' > 'grek' <'dflt' > 'latn' <'dflt' > ) ]
MarkAttachClasses: 1
DEI: 91125
KernClass2: 7 9 "'kern' Horizontal Kerning lookup 0-1"
 5 seven
 7 V W T P
 1 A
 4 A.sc
 7 r v w y
 14 W.sc V.sc Y.sc
 5 comma
 6 period
 295 a b c d e f g h i j k l m n o q r s t x z acircumflex atilde adieresis aring ae ccedilla egrave eacute ecircumflex edieresis igrave iacute icircumflex idieresis eth ntilde ograve oacute ocircumflex otilde odieresis divide oslash ugrave uacute ucircumflex udieresis yacute thorn ydieresis amacron
 4 T.sc
 9 u v w y p
 1 A
 5 W V Y
 4 A.sc

StartChar: a
Encoding: 55 97 1
AltUni2: 0000aa.ffffffff.0
GlifName: uni0061
Width: 622
VWidth: 153
Flags: HMW
AnchorPoint: "bottom" 526 -3 basechar 0
AnchorPoint: "top" 285 611 basechar 0
LayerCount: 3
Fore
SplineSet
40 125 m 0
 40 226 110 296 265 331 c 0
 357 352 431 356 431 356 c 1
 431 273 l 1
 431 273 387.3984375 290.712890625 328.873046875 290.712890625 c 0
 229.274414062 290.712890625 166.922851562 230.631835938 166.922851562 155.463867188 c 0
 166.922851562 97.7392578125 201.747070312 62.9501953125 260.104492188 62.9501953125 c 0
 340.875 62.9501953125 399.099609375 120.6796875 405 161 c 1
 433 119 l 1
 433 119 378 -13 203 -13 c 0
 118 -13 40 32 40 125 c 0
79.25 490.625 m 0
 79.25 519 80 539 80 539 c 1
 129 566 227 611 336 611 c 0
 465 611 514 571 517 443 c 0
 518.467120011 380.402879514 511.368164062 292.833007812 511.368164062 210.153320312 c 0
 511.368164062 130.017578125 510.858398438 54.1806640625 581.815429688 54.1806640625 c 0
 586.0078125 54.1806640625 590.40234375 54.4521484375 595 55 c 1
 606 16 l 1
 591.421875 7.560546875 551.53125 -10.88671875 507.555664062 -10.88671875 c 0
 430.97265625 -10.88671875 411.875976562 37.763671875 408 114 c 1
 398 114 l 1
 404.456054688 161.883789062 408.307617188 240.739257812 408.307617188 312.413085938 c 0
 408.307617188 373.95703125 405.467773438 430.205078125 399 457 c 0
 381.133789062 532.71875 336.314453125 553.875 295.028320312 553.875 c 0
 224.33984375 553.875 195.397460938 508.487304688 163 474 c 1
 215 557 l 1
 194 512 177 466 171 401 c 1
 83 392 l 1
 80 425.5 79.25 462.25 79.25 490.625 c 0
EndSplineSet
Substitution2: "'smcp' Lowercase to Small Capitals in Latin lookup 0-1" A.sc
EndChar

StartChar: n
Encoding: 68 110 2
GlifName: uni006E_
Width: 807
VWidth: 79
Flags: HMW
LayerCount: 3
Fore
SplineSet
49 595 m 1
 127.857681666 592.742821222 293 608 293 608 c 1
 293 608 276 491 270 465 c 1
 292 478 l 1
 286.534179688 365.958007812 289.006835938 251.686523438 288 137.318359375 c 0
 288 54.2385065166 335.214303645 48 373 48 c 1
 383 0 l 1
 69 0 l 1
 61 62 l 1
 125.936523438 59.5888671875 167.999993744 69.2311077242 173.163024857 121.51374162 c 0
 182 211 181.999999015 312.218289658 182 378 c 0
 182 486.246410281 179.87465323 530.978666994 56 534 c 1
 49 595 l 1
261 454 m 5
 310 522 420 612 527 612 c 4
 603 612 661 575 675 481 c 4
 678 459 679 418 679 373 c 4
 679 301.221917303 676.089418456 210.161231876 672.901649834 131.199228044 c 5
 673.947646719 55.7391451607 730.554625096 50 762 50 c 5
 772 0 l 5
 458 0 l 5
 448 62 l 5
 508.048412496 56 554.445875621 56.008999501 563.604110753 135.800429659 c 4
 569.952106092 191.107551547 571.000000008 250.139083158 571 303 c 4
 571 347 569 387 565 417 c 4
 556 480 514 513 455 513 c 4
 354 513 286 417 286 417 c 5
 261 454 l 5
EndSplineSet
Substitution2: "'smcp' Lowercase to Small Capitals in Latin lookup 0-1" N.sc
EndChar

StartChar: d
Encoding: 58 100 3
GlifName: uni0064
Width: 745
VWidth: 79
Flags: HMW
LayerCount: 3
Fore
SplineSet
55.9907813076 227.620987294 m 0
 55.9907813076 387.500195581 170.791569131 606.208991516 422.127804386 606.208991516 c 0
 469.686162524 606.208991516 513.131835938 597.325195312 538 588 c 1
 498 500 l 1
 498 500 446.724754206 545.394423022 373.558455199 545.394423022 c 0
 255.707151928 545.394423022 179.98331959 426.104546733 179.98331959 260.569181897 c 0
 179.98331959 155.521558851 225.616338936 67.3459811944 315.339119522 67.3459811944 c 0
 391.210475473 67.3459811944 460.157424634 129.976234773 480 181 c 1
 511 140 l 1
 479 66 393 -13 280 -13 c 0
 134.266833155 -13 55.9907813076 64.9930206683 55.9907813076 227.620987294 c 0
355 830 m 1
 358.608695652 829.913043478 362.383742911 829.871455577 366.303854689 829.871455577 c 0
 452.5463138 829.871455577 609 850 609 850 c 1
 591.066445914 755.848841047 586.324023869 569.045683227 586.324023869 412.976895466 c 0
 586.324023869 290.562055033 589.241694261 187.055856784 591 162 c 0
 596.234042553 90.4680851064 618.209597103 54.7021276596 675.513951629 54.7021276596 c 0
 683.899954731 54.7021276596 693.042553191 55.4680851064 703 57 c 1
 716 13 l 1
 681.280333605 -7.97646511372 639.94190655 -21.0002051872 598.021498647 -21.0002051872 c 0
 507.840503751 -21.0002051872 484 44.1376635829 484 99 c 1
 475 142 l 1
 481.331884195 189.036854019 483.57267069 283.734996242 483.57267069 384.832486802 c 0
 483.57267069 507.264805739 480.286335345 639.082402869 477 707 c 0
 475.069693846 752.362194627 434.947048735 766.052693533 367.420782755 766.052693533 c 0
 364.982741955 766.052693533 362.508978444 766.034846923 360 766 c 1
 355 830 l 1
EndSplineSet
Substitution2: "'smcp' Lowercase to Small Capitals in Latin lookup 0-1" D.sc
EndChar

StartChar: h
Encoding: 62 104 4
GlifName: uni0068
Width: 777
VWidth: 79
Flags: HMW
LayerCount: 3
Fore
SplineSet
231 454 m 1
 280 522 390 612 497 612 c 0
 573 612 631 575 645 481 c 0
 648 459 649 418 649 373 c 0
 649 301.221679688 646.08984375 210.161132812 642.901367188 131.19921875 c 1
 643.947265625 55.7392578125 700.5546875 50 732 50 c 1
 742 0 l 1
 428 0 l 1
 418 62 l 1
 478.048828125 56 524.446289062 56.0087890625 533.604492188 135.80078125 c 0
 539.952148438 191.107421875 541 250.138671875 541 303 c 0
 541 347 539 387 535 417 c 0
 526 480 484 513 425 513 c 0
 324 513 256 417 256 417 c 1
 231 454 l 1
38 61 m 1
 42.2894721164 60.7742383097 46.4419668169 60.6631553862 50.4605405683 60.6631553862 c 0
 115.39035833 60.6631553862 147.058200817 88.4656168318 153 136 c 0
 159.195238572 219.635720716 161.936188857 350.48004801 161.936188857 483.117129156 c 0
 161.936188857 564.575243239 160.902380714 646.709532859 159 719 c 0
 154 763 124 766 46 766 c 1
 39 829 l 1
 123.272401408 826.969339725 286.676757812 850 287 850 c 1
 267.733398438 685.852539062 261.533203125 325.422851562 261.533203125 171.083984375 c 0
 261.533203125 75.572265625 292.33203125 50.8447265625 349.255859375 50.8447265625 c 0
 351.532226562 50.8447265625 353.474609375 50.9150390625 355 51 c 1
 365 0 l 1
 257.666992188 0 155.333333333 0 48 0 c 1
 38 61 l 1
EndSplineSet
Substitution2: "'smcp' Lowercase to Small Capitals in Latin lookup 0-1" H.sc
EndChar

StartChar: e
Encoding: 59 101 5
GlifName: uni0065
Width: 610
VWidth: 153
Flags: HMW
AnchorPoint: "top" 336 611 basechar 0
LayerCount: 3
Fore
SplineSet
46 256 m 4
 45.369140625 483.856445312 185.483398438 608.422851562 335 610.306640625 c 0
 477.122070312 612.096679688 584.015625 504.470703125 562 298 c 1
 167 296 l 1
 137 344 l 1
 375 367 l 1
 439 368 l 1
 439.612304688 466.48828125 397.958984375 555.797851562 317 555.377929688 c 0
 231.88671875 554.936523438 168.997070312 454.909179688 167 323 c 0
 164.655273438 168.13671875 202.708984375 54.90234375 360 52.8203125 c 0
 457.966796875 51.5234375 519.303710938 111 521 111 c 1
 541 76 l 1
 525 55 457.012695312 -19.1474609375 320 -20 c 0
 171 -20.9267578125 46.5296351249 64.7041555427 46 256 c 4
EndSplineSet
Substitution2: "'smcp' Lowercase to Small Capitals in Latin lookup 0-1" E.sc
EndChar

StartChar: s
Encoding: 73 115 7
GlifName: uni0073
Width: 531
VWidth: 153
Flags: HMW
LayerCount: 3
Fore
SplineSet
47.0355743731 48.8667360309 m 0
 47.0355743731 82.5779618946 49.920997883 124.47331922 56 165 c 1
 139 156 l 1
 142 109 151 65 175 30 c 1
 134 41 122 85 115 128 c 1
 147.425076313 93.5483564173 167.701718274 35.9785274947 255.566993103 35.9785274947 c 0
 322.117832788 35.9785274947 366.00390625 74.060546875 366.00390625 136.217773438 c 0
 366.00390625 263.814453125 78.1787109375 267.373046875 78.1787109375 434.07421875 c 0
 78.1787109375 527.109375 154.450865302 606.067175928 294.999611596 606.067175928 c 0
 387.623491053 606.067175928 458 580 458 580 c 1
 459.468027353 566.053740151 460.12789059 547.662577666 460.12789059 528.286866375 c 0
 460.12789059 494.868707696 458.164965809 458.521767503 455 437 c 1
 375 445 l 1
 374 482 359 543 338 591 c 2
 393 462 l 1
 379 478 358 554 274 555 c 0
 222.486750602 555 182.084960938 523.827148438 182.084960938 475.26953125 c 0
 182.084960938 340.240234375 476.840820312 351.802734375 476.840820312 161.782226562 c 0
 476.840820312 56.41796875 386.624783034 -25 245 -25 c 0
 132 -25 49 7 49 7 c 1
 47.7017787187 18.3594362118 47.0355743731 32.6682847904 47.0355743731 48.8667360309 c 0
EndSplineSet
Substitution2: "'smcp' Lowercase to Small Capitals in Latin lookup 0-1" S.sc
EndChar

StartChar: o
Encoding: 69 111 8
AltUni2: 0000ba.ffffffff.0
GlifName: o
Width: 662
VWidth: 153
Flags: HMW
AnchorPoint: "top" 359 611 basechar 0
LayerCount: 3
Fore
SplineSet
44 246 m 0
 45 90 131 -15 299 -18 c 0
 522.00031949 -21.9821485623 611 148 616 324 c 0
 622 531 516 614 362 615 c 0
 179 616 42 466 44 246 c 0
171 318 m 0
 176 505 272 552 318 556 c 4
 429 566 503 455 498 298 c 0
 494 168 441 55 344 44 c 0
 230 31 166 156 171 318 c 0
EndSplineSet
Substitution2: "'smcp' Lowercase to Small Capitals in Latin lookup 0-1" O.sc
EndChar

StartChar: b
Encoding: 56 98 9
GlifName: b
Width: 688
VWidth: 79
Flags: HMW
LayerCount: 3
Fore
SplineSet
-17 830 m 1
 66 828 237 850 237 850 c 1
 205 682 215 219 219 162 c 0
 222.16796875 118.703125 226.317382812 79.7216796875 229.34765625 66 c 1
 103 22 l 1
 116 127 123 572 105 707 c 0
 99 754 60 767 -12 766 c 1
 -17 830 l 1
103 22 m 1
 169 141 l 1
 169 141 225.309570312 50.900390625 333 49.5654296875 c 0
 443.225585938 48.19921875 511.954101562 163.552734375 513 346 c 4
 513.78515625 483.001953125 438 535 372 534 c 0
 314.998046875 533.13671875 249 488 213 404 c 1
 183 447 l 1
 231 560 332 613 417 613 c 0
 542 613 643.243164062 522.993164062 638 344 c 0
 633.194335938 179.962890625 544 -10 314 -12 c 0
 216 -13 146 5 103 22 c 1
EndSplineSet
Substitution2: "'smcp' Lowercase to Small Capitals in Latin lookup 0-1" B.sc
EndChar

StartChar: r
Encoding: 72 114 10
GlifName: r
Width: 578
VWidth: 79
Flags: HMW
LayerCount: 3
Fore
SplineSet
49 595 m 1
 127.857681666 592.742821222 293 608 293 608 c 1
 293 608 279 491 273 465 c 1
 292 478 l 1
 286.534179688 365.958007812 286.220944371 261.690054366 288 147.318359375 c 0
 289.447667593 54.2508949873 374.213867188 48 412 48 c 1
 422 0 l 1
 81 0 l 1
 73 62 l 1
 127.936523438 57.5888671875 167.999993745 69.2311077241 173.163024857 121.51374162 c 0
 182 211 182 312.218289658 182 378 c 0
 182 486.246410281 179.87465323 530.978666994 56 534 c 1
 49 595 l 1
223 380 m 1
 252 482 382.227539062 572.30859375 450 593 c 0
 505.029296875 609.80078125 553 611 553 611 c 1
 555 573 548 474 541 429 c 1
 479 431 l 5
 473 454 457 480 418 495 c 5
 435.837890625 492.82421875 475.375976562 505.51171875 501 481 c 1
 501 481 430.346679688 495.06640625 385 481 c 0
 330.665039062 464.145507812 280 418 248 344 c 1
 223 380 l 1
EndSplineSet
Substitution2: "'smcp' Lowercase to Small Capitals in Latin lookup 0-1" R.sc
EndChar

StartChar: period
Encoding: 11 46 11
GlifName: period
Width: 318
VWidth: 79
Flags: HMW
AnchorPoint: "top" 150.158 -40.4551 basechar 0
LayerCount: 3
Fore
SplineSet
74.8271484375 48.6171875 m 0
 74.8271484375 95.755859375 110.559570312 129.618164062 156.59375 129.618164062 c 0
 197.916992188 129.618164062 233.801757812 100.114257812 233.801757812 53.0751953125 c 0
 233.801757812 4.19140625 198.747070312 -28.3994140625 151.59375 -28.3994140625 c 0
 105.08203125 -28.3994140625 74.8271484375 -0.265625 74.8271484375 48.6171875 c 0
EndSplineSet
EndChar

StartChar: t
Encoding: 74 116 12
GlifName: t
Width: 460
VWidth: 79
Flags: HMW
LayerCount: 3
Fore
SplineSet
15 584 m 1
 135 584 l 1
 135 584 135 678 136 767 c 1
 251 792 l 1
 245.831054688 729.704101562 241.4765625 657.4921875 238.5 584 c 1
 392 584 l 1
 404 520 l 1
 235.87890625 505.751953125 l 1
 232.805664062 464.970703125 230.220703125 404.739257812 230.220703125 366.545898438 c 0
 230.220703125 245.33984375 224.767578125 161.739257812 237 128 c 0
 252.180664062 86.130859375 288.689453125 68.3408203125 327.916992188 68.3408203125 c 0
 351.260742188 68.3408203125 376.630859375 75.7041015625 402 91 c 1
 428 56 l 1
 406.87890625 31.861328125 334.671875 -17.0126953125 252.791015625 -17.0126953125 c 0
 159.211914062 -17.0126953125 117.830078125 35.6962890625 117.830078125 127.73046875 c 0
 117.830078125 193.290039062 133.245117188 386.213867188 129 498 c 1
 129 498 85 517 25 517 c 1
 15 584 l 1
EndSplineSet
Substitution2: "'smcp' Lowercase to Small Capitals in Latin lookup 0-1" T.sc
EndChar

StartChar: p
Encoding: 70 112 13
GlifName: p
Width: 768
VWidth: 79
Flags: HMW
LayerCount: 3
Fore
SplineSet
227 12 m 1
 267 100 l 1
 267 100 338 43 429 62 c 0
 517 80 576 181 578 331 c 0
 579 434 542.986910648 528.580024094 440 532 c 0
 368.641186159 534.36967419 302 474 281 420 c 1
 250 461 l 1
 282 535 378 614 491 614 c 0
 617 614 711 527 712 370 c 0
 712.904462679 227.999359342 630 50 427 5 c 0
 349 -12 267 -3 227 12 c 1
40 595 m 1
 55 594 71 594 88 594 c 0
 182 594 284 608 284 608 c 1
 284 608 267 506 261 480 c 1
 284 488 l 1
 281 422 277 349 277 279 c 0
 277 231.108617209 275.69925868 134.189329187 278.207538628 30.0000047449 c 4
 281.377852233 -101.688977218 287.374023438 -180 397 -180 c 1
 407 -228 l 1
 68 -228 l 1
 60 -166 l 1
 168.333984375 -165.282226562 164.51171875 -113.860351562 168.181640625 52 c 4
 170.964516417 177.770731082 173 326.690429688 173 375 c 0
 173 411 172 439 170 456 c 0
 165 501 130 533 47 531 c 1
 40 595 l 1
EndSplineSet
Substitution2: "'smcp' Lowercase to Small Capitals in Latin lookup 0-1" P.sc
EndChar

StartChar: v
Encoding: 76 118 14
GlifName: v
Width: 659
VWidth: 79
Flags: HMW
LayerCount: 3
Fore
SplineSet
3 596 m 1
 112.955078125 590.78125 185.04516129 592.904296875 295 596 c 1
 309 542 l 1
 233 536 208 525 223 460 c 5
 222.7265625 459.962890625 l 5
 254.463867188 361.939453125 289.522460938 248.149414062 319.678710938 155 c 4
 325.389648438 133.130859375 326.991210938 69 326.991210938 69 c 1
 357.03515625 141.522460938 435.627311169 300.728341587 496.733398438 468.791992188 c 0
 517.490234374 525.794921875 465.559570312 535.975585938 398 533 c 1
 389 596 l 1
 485.666992188 590.463867188 562.333007812 592.002929688 659 596 c 1
 670 538 l 1
 600.022460938 535.735351562 592.594726562 496.991210938 574.810546875 455.861328125 c 0
 497.965820312 277.340185174 414.959960938 95.2626953125 377.661132812 14.6162109375 c 9
 262.399414062 -18.650390625 l 1
 223.270507812 92.927734375 182.610351562 224.994140625 107.497070312 462.43359375 c 0
 87.1874351438 526.634073177 63.650390625 532.875976562 17 532 c 1
 3 596 l 1
EndSplineSet
EndChar

StartChar: m
Encoding: 67 109 15
GlifName: m
Width: 1156
VWidth: 79
Flags: HMW
LayerCount: 3
Fore
SplineSet
618 454 m 1
 667 522 777 612 884 612 c 0
 960 612 1018 575 1032 481 c 0
 1035 459 1036 418 1036 373 c 0
 1036 301.221679688 1033.08984375 210.161132812 1029.90136719 131.19921875 c 1
 1030.94726562 55.7392578125 1087.5546875 50 1119 50 c 1
 1129 0 l 1
 827 0 l 1
 817 59 l 1
 860.048828125 55 911.446289062 56.0087890625 920.604492188 135.80078125 c 0
 926.952148438 191.107421875 928 250.138671875 928 303 c 0
 928 347 926 387 922 417 c 0
 913 480 871 513 812 513 c 0
 711 513 643 417 643 417 c 1
 618 454 l 1
39 595 m 1
 117.857421875 592.743164062 283 608 283 608 c 1
 283 608 271 521 265 495 c 1
 287 508 l 1
 281.534179688 395.958007812 279.006835938 251.686523438 278 137.318359375 c 0
 278 54.23828125 325.213867188 48 363 48 c 1
 373 0 l 1
 59 0 l 1
 51 62 l 1
 105.936523438 55.5888671875 158 69.2314453125 163.163085938 121.513671875 c 0
 172 211 172 312.21875 172 378 c 0
 172 486.24609375 169.875 530.978515625 46 534 c 1
 39 595 l 1
256 484 m 1
 305 546 403 612 510 612 c 0
 586 612 639 575 653 481 c 0
 656 459 657 418 657 373 c 0
 657 301.221679688 654.08984375 210.161132812 650.901367188 131.19921875 c 1
 651.947265625 55.7392578125 700.5546875 50 732 50 c 1
 742 0 l 1
 452 0 l 1
 442 60 l 1
 485.048828125 56 528.446289062 56.0087890625 537.604492188 135.80078125 c 0
 543.952148438 191.107421875 545 250.138671875 545 303 c 0
 545 347 543 387 539 417 c 0
 530 480 492 516 433 516 c 0
 332 516 281 447 281 447 c 1
 256 484 l 1
EndSplineSet
EndChar

StartChar: g
Encoding: 61 103 16
GlifName: g
Width: 769
VWidth: 153
Flags: HMW
LayerCount: 3
Fore
SplineSet
49.5732421875 -134 m 0
 48.6349819974 -28.7379463112 160.967773438 29.728515625 266 70 c 1
 366 63 l 17
 277.77734375 44.1123046875 166.515422314 -20.7032022693 167.3671875 -107 c 0
 168.002923935 -171.409792055 226.731445312 -206.161132812 340 -206 c 0
 481.725585938 -205.797851562 555.203125 -118.814453125 555 -57 c 0
 554.624023438 57.3583984375 352.033587744 49.3352864019 194 57 c 0
 121.936523438 60.4951171875 93.291015625 69.162109375 85 124 c 1
 126.3828125 173.563476562 191 220 258 259 c 1
 273 229 l 1
 219 186 206.924804688 130 267 130 c 0
 504.77734375 130 681.217773438 117.998046875 680 -24 c 0
 678.859375 -156.999023438 525.001953125 -268.349609375 303 -268 c 0
 145.43359375 -267.751953125 50.2915810734 -214.58940065 49.5732421875 -134 c 0
74 384 m 0
 72.5312896652 524.996192137 209 611 351 611 c 0
 446 611 578 570 578 452 c 0
 578 307 444 228 308 228 c 0
 163 228 75 288 74 384 c 0
195 409 m 0
 195 317 259 282.0234375 322 283 c 0
 407.995117188 284.333007812 454 350 454 429 c 0
 454 492 416 557 335 557 c 0
 267 557 195 497 195 409 c 0
524 516 m 17
 554 518 634 547 736 607 c 1
 742 570 743 502 739 472 c 1
 683 474 617 474 566 474 c 9
 524 516 l 17
EndSplineSet
Substitution2: "'smcp' Lowercase to Small Capitals in Latin lookup 0-1" G.sc
EndChar

StartChar: H
Encoding: 34 72 17
GlifName: H_
Width: 900
VWidth: 79
Flags: HMW
AnchorPoint: "top" 449 812 basechar 0
LayerCount: 3
Fore
SplineSet
520 800 m 1
 642.103515625 794.626953125 761.040039062 796.038085938 858 801 c 1
 858 801 863 755 866 736 c 1
 805 733 763.9921875 725.918945312 759 663 c 0
 748.516601562 530.87109375 742 368 750 153 c 0
 752.634765625 82.1904296875 807 59 859 63 c 1
 870 0 l 1
 532 -1 l 1
 524 63 l 1
 587 64 632.334960938 74.908203125 636 138 c 0
 642.444335938 248.939453125 646.061523438 455 639 638 c 0
 636.715820312 697.201171875 627 738.604492188 529 736 c 1
 526 752 522 791 520 800 c 1
35 800 m 1
 157.103515625 794.626953125 278.040039062 796.038085938 375 801 c 1
 375 801 380 755 383 736 c 1
 322 733 280.9921875 725.918945312 276 663 c 0
 265.516601562 530.87109375 259 368 267 153 c 0
 269.634765625 82.1904296875 324 59 376 63 c 1
 387 0 l 1
 47 -1 l 1
 39 63 l 1
 102 64 147.334960938 74.908203125 151 138 c 0
 157.444335938 248.939453125 161.061523438 455 154 638 c 0
 151.715820312 697.201171875 142 738.604492188 44 736 c 1
 41 752 37 791 35 800 c 1
194 358 m 1
 194 435 l 1
 533 436 l 1
 737 443 l 1
 737 358 l 1
 194 358 l 1
EndSplineSet
Substitution2: "'smcp' Lowercase to Small Capitals in Latin lookup 0-1" H.sc
EndChar

StartChar: A
Encoding: 27 65 18
GlifName: A_
Width: 844
VWidth: 79
Flags: HMW
AnchorPoint: "bottom" 748 -1 basechar 0
AnchorPoint: "top" 409 812 basechar 0
LayerCount: 3
Fore
SplineSet
20 61 m 1
 91 62 116.469726562 85.82421875 135 136 c 0
 224 377 297 594 352 779 c 1
 391 785 439 797 478 810 c 1
 539 600 608 418 708 150 c 0
 725 104 746 49 814 51 c 1
 824 0 l 1
 715.333333333 -0 606.666666667 0 498 0 c 1
 488 58 l 1
 559 57 600 65 584 124 c 0
 550 249 476 407 433 552 c 0
 425 591 410 656 402 697 c 1
 342 489 253 210 238 145 c 0
 217 49 283 50 331 51 c 1
 341 0 l 1
 233 0 138 0 30 0 c 1
 20 61 l 1
256 258 m 1
 256 329 l 1
 579 337 l 1
 579 261 l 1
 256 258 l 1
EndSplineSet
Substitution2: "'smcp' Lowercase to Small Capitals in Latin lookup 0-1" A.sc
EndChar

StartChar: B
Encoding: 28 66 19
GlifName: B_
Width: 736
VWidth: 79
Flags: HMW
AnchorPoint: "top" 409 812 basechar 0
LayerCount: 3
Fore
SplineSet
55 798 m 1
 213 788 262 803 412 803 c 0
 547 803 648 738 649 618 c 0
 650 524 584 417 477 412 c 1
 509 437 l 1
 629 421 697.197265625 332.998046875 696 230 c 0
 694 58 535 0 374 0 c 0
 305.9921875 0 141 0 67 0 c 1
 57 57 l 1
 136 57 156 77 158 127 c 0
 167 342 170 468 162 628 c 0
 159 686 150 734 65 735 c 1
 55 798 l 1
257 375 m 1
 256 275 259 207 269 133 c 0
 276 75 308 68 384 68 c 0
 487.004882812 68 573 129 573 229 c 0
 573 316 511 383 396 386 c 0
 353.003001535 387.12166083 292 382 257 375 c 1
259 450 m 1
 311.753975616 448.211901024 355.358515781 449.301376436 391 451.1484375 c 0
 487.708180221 456.160179243 525.31625831 537.303639121 526 599 c 0
 527.0311349 692.042843199 459 742 381 744 c 0
 335 745 291 739 268 730 c 1
 260 653 260 548 259 450 c 1
EndSplineSet
Substitution2: "'smcp' Lowercase to Small Capitals in Latin lookup 0-1" B.sc
EndChar

StartChar: W
Encoding: 49 87 20
GlifName: W_
Width: 1261
VWidth: 79
Flags: HMW
AnchorPoint: "top" 649 812 basechar 0
LayerCount: 3
Fore
SplineSet
-6 801 m 1
 80 797 243 797 331 801 c 1
 341 738 l 1
 279 740 219 736 235 677 c 0
 269 552 324 384 367 239 c 0
 375 206 377 141 385 106 c 1
 471 307 579 557 603 620 c 1
 696 633 l 1
 613 409 512 188 437 8 c 1
 398 2 350 -10 311 -23 c 1
 250 181 200.62109375 390.161132812 110 651 c 0
 90.4833984375 707.17578125 72 739 4 737 c 1
 -6 801 l 1
469 799 m 1
 581 799 685 799 797 799 c 1
 807 735 l 1
 742 736 695 734 711 675 c 0
 745 550 794 370 837 225 c 4
 845 192 843 135 846 100 c 5
 909 296 1023.94628906 602.024414062 1034 666 c 0
 1045 736 1016 744 938 743 c 1
 929 800 l 1
 1037 800 1118 800 1226 800 c 1
 1236 739 l 1
 1165 738 1140.9296875 715.061523438 1125 664 c 0
 1052 430 958 188 903 8 c 1
 864 2 822 -10 783 -23 c 1
 722 181 671.508789062 386.954101562 587 649 c 0
 567.096679688 710.715820312 545 746 477 744 c 1
 469 799 l 1
EndSplineSet
Substitution2: "'smcp' Lowercase to Small Capitals in Latin lookup 0-1" W.sc
EndChar

StartChar: c
Encoding: 57 99 21
GlifName: c
Width: 591
VWidth: 79
Flags: HMW
AnchorPoint: "bottom" 319 -21 basechar 0
AnchorPoint: "top" 350 611 basechar 0
LayerCount: 3
Fore
SplineSet
349 611 m 1024,20,21
54.255859375 250 m 0,0,0
 51.543833561 408.0132563 152.556003663 603.448115332 380 610 c 0,2,3
 477.958984375 612.822265625 541 581 541 581 c 1,4,5
 543 543 543 473 536 428 c 1,6,-1
 476 434 l 1,7,8
 455 477 436 516 387 550 c 1,9,-1
 458 497 l 2,10,11
 435.191001908 514.819529759 390.255485792 543.226574946 339.000002698 543.270294965 c 0,0,0
 235.125215503 543.358898318 173.256835938 426.840820312 177 270 c 0,14,15
 180.173828125 137.022460938 251.999023438 54.912109375 371 53 c 0,16,17
 438.999023438 51.9072265625 496 79 534 112 c 1,18,-1
 556 77 l 1,19,20
 500 14 425 -21 331 -21 c 0,21,22
 184.349609375 -21 57.693359375 49.7177734375 54.255859375 250 c 0,0,0
EndSplineSet
EndChar

StartChar: w
Encoding: 77 119 22
GlifName: w
Width: 976
VWidth: 79
Flags: HMW
LayerCount: 3
Fore
SplineSet
6 596 m 1
 126 587 194 589 300 596 c 1
 314 542 l 1
 258 542 200.982421875 537.345703125 227 460 c 4
 259.877929688 362.260742188 281.7890625 301.650390625 312 207 c 4
 323.153320312 172.056640625 325 84 325 84 c 1
 355 156 410 293 479 459 c 1
 546 456 l 1
 468 279 398 81 362 1 c 9
 271 -16 l 1
 232 96 188.908203125 224.341796875 111 462 c 0
 89.908203125 526.341796875 61 533 14 532 c 1
 6 596 l 1
363 596 m 1
 474 592 539 594 633 596 c 1
 643 542 l 1
 582 539 563.174804688 523.975585938 582 460 c 0
 610.989257812 361.481445312 636.7890625 301.650390625 665 207 c 0
 675.477539062 171.848632812 679 87 679 87 c 1
 711 159 753.275390625 293.982421875 810 459 c 0
 830.275390625 517.982421875 782 536 714 533 c 1
 705 596 l 1
 802 590 871 590 965 596 c 1
 976 538 l 1
 916 536 908 508 888 456 c 0
 819 279 750 81 719 1 c 9
 627 -16 l 1
 593 96 536.920898438 244.702148438 468 482 c 0
 457.920898438 516.702148438 428 534 381 532 c 1
 363 596 l 1
EndSplineSet
Substitution2: "'smcp' Lowercase to Small Capitals in Latin lookup 0-1" W.sc
EndChar

StartChar: V
Encoding: 48 86 23
GlifName: V_
Width: 826
VWidth: 79
Flags: HMW
AnchorPoint: "top" 409 812 basechar 0
LayerCount: 3
Fore
SplineSet
5 799 m 1
 117 794 259 793 341 799 c 1
 351 735 l 1
 280 746 231 734 247 675 c 0
 281 556 344 377 387 238 c 0
 395 199 406 117 410 76 c 1
 480 267 604 591 619 654 c 0
 640 750 560 749 512 748 c 1
 502 799 l 1
 613 795 723 790 826 799 c 1
 836 738 l 1
 755 747 733 713 714 663 c 0
 621 429 525 188 466 8 c 1
 427 2 377 -10 338 -23 c 1
 277 187 221 401 121 669 c 0
 104 705 83 754 15 744 c 1
 5 799 l 1
EndSplineSet
Substitution2: "'smcp' Lowercase to Small Capitals in Latin lookup 0-1" V.sc
EndChar

StartChar: C
Encoding: 29 67 24
GlifName: C_
Width: 748
VWidth: 79
Flags: HMW
AnchorPoint: "bottom" 413 -22 basechar 0
AnchorPoint: "top" 427 814 basechar 0
LayerCount: 3
Fore
SplineSet
58 297 m 0
 43.392578125 555.762695312 204.696289062 783.04296875 496 798 c 0
 630.093323855 804.885041144 704 773 704 773 c 1
 707 722 703 592 693 550 c 1
 634 553 l 1
 602 641 531 742 485 749 c 1
 499 770 669 739 616 644 c 1
 599 648 558 717 435 717 c 0
 279 717 185.268554688 565.004882812 189 363 c 0
 192.306640625 184.005859375 271.998801569 60.1255634494 456 62 c 0
 551 62.9677734375 630 105 681 153 c 1
 721 110 l 1
 650 22 546 -23 414 -23 c 4
 210 -23 69.6787109375 90.1201171875 58 297 c 0
EndSplineSet
Substitution2: "'smcp' Lowercase to Small Capitals in Latin lookup 0-1" C.sc
EndChar

StartChar: q
Encoding: 71 113 25
GlifName: q
Width: 682
VWidth: 79
Flags: HMW
LayerCount: 3
Fore
SplineSet
45 261 m 0
 51 443 147 615 369 617 c 0
 467.001124993 617.882893018 532 600 575 583 c 1
 503 453 l 1
 503 453 438 574 321 553 c 0
 239 538 167 434 166 256 c 0
 165.23046875 118.998046875 240 71 302 72 c 0
 359 73 429 117 465 201 c 1
 499 160 l 1
 451 47 365 -8 273 -8 c 0
 128 -8 39.362231019 89.9876742427 45 261 c 0
343 -166 m 1
 447.186523438 -159.682617188 459.397460938 -124.963867188 461.573242188 20 c 0
 463.657226562 158.888671875 461.062677937 413.606839404 459 443 c 0
 453 525 465 570 387 558 c 1
 374 602 l 1
 575 583 l 1
 557.749811781 454.855744657 562.0859375 163.02734375 572 -65 c 0
 574.799411571 -129.387569141 604.538085938 -180 667 -180 c 1
 673 -228 l 1
 351 -228 l 1
 343 -166 l 1
EndSplineSet
EndChar

StartChar: f
Encoding: 60 102 26
GlifName: f
Width: 489
VWidth: 79
Flags: HMW
LayerCount: 3
Fore
SplineSet
30 588 m 1
 171.5078125 583.043945312 252.553710938 582.5 384 588 c 1
 397 522 l 1
 205 503.526367188 l 1
 163 439.640625 l 1
 161.805664062 506.45703125 88.041015625 519.84765625 40 520 c 1
 30 588 l 1
25 61 m 1
 142.172160152 54.8324602263 135.895022448 112.918060143 135.954574979 219 c 0
 136.007996985 314.161530322 133.862521649 407.959828698 131.30078125 520 c 0
 130.958007812 534.991210938 133.607421875 550.30859375 133.25390625 566 c 0
 132.837890625 584.458007812 133.712890625 603.4296875 134 623 c 0
 137.348632812 850.875976562 279.700195312 908.90234375 398 908 c 0
 463.017578125 907.50390625 526 886 526 886 c 1
 526.15234375 830.548828125 504.224075266 758.377514403 483 718 c 1
 442.314453125 780.97265625 384.509765625 856.119140625 311 848 c 0
 266.293945312 843.0625 238.89453125 800.879882812 237 671 c 0
 234.804075732 520.494664655 230.721342809 323.375617492 239.17294021 182.000005141 c 0
 244.747680182 88.7475417657 281.776043533 51.6359189101 348 54 c 5
 358 0 l 1
 32 0 l 1
 25 61 l 1
EndSplineSet
Substitution2: "'smcp' Lowercase to Small Capitals in Latin lookup 0-1" F.sc
EndChar

StartChar: y
Encoding: 79 121 30
GlifName: y
Width: 665
VWidth: 79
Flags: HMW
AnchorPoint: "top" 336 613 basechar 0
LayerCount: 3
Fore
SplineSet
-3 596 m 1
 111 591 196 593 310 596 c 1
 324 542 l 1
 248 536 195.817036307 523.868897308 215 460 c 0
 243.989257812 363.481445312 269 297 300 202 c 0
 311 167 331 70 331 70 c 5
 365 142 450 353 484 459 c 0
 502 518 462 536 394 533 c 1
 385 596 l 1
 482 590 558 592 655 596 c 1
 666 538 l 1
 596 536 588.669921875 507.140625 567 456 c 0
 492 279 417 96 380 16 c 1
 351 13 296 -4 262 -8 c 1
 223 104 181.908203125 224.341796875 104 462 c 0
 82.908203125 526.341796875 52 539 5 538 c 1
 -3 596 l 1
43 -143 m 1
 236 -167 283 -39 327 56 c 13
 395 50 l 17
 369 -9 333 -106 299 -158 c 0
 246 -240 148 -267 63 -263 c 1
 25 -231 32 -163 43 -143 c 1
EndSplineSet
Substitution2: "'smcp' Lowercase to Small Capitals in Latin lookup 0-1" Y.sc
EndChar

StartChar: l
Encoding: 66 108 31
GlifName: l
Width: 398
VWidth: 79
Flags: HMW
LayerCount: 3
Fore
SplineSet
38 61 m 1
 42.2894721164 60.7742383097 46.4419668169 60.6631553862 50.4605405683 60.6631553862 c 0
 115.39035833 60.6631553862 147.058200817 88.4656168318 153 136 c 0
 159.195238572 219.635720716 161.936188857 350.48004801 161.936188857 483.117129156 c 0
 161.936188857 564.575243239 160.902380714 646.709532859 159 719 c 0
 154 763 124 766 46 766 c 1
 39 829 l 1
 123.272401408 826.969339725 286.676757812 850 287 850 c 1
 267.733398438 685.852539062 258.624546595 325.424600033 261.533203125 171.083984375 c 0
 263.389385217 72.5903039212 292.33203125 50.8447265625 349.255859375 50.8447265625 c 0
 351.532226562 50.8447265625 353.474609375 50.9150390625 355 51 c 1
 365 0 l 1
 257.666992188 0 155.333333333 0 48 0 c 1
 38 61 l 1
EndSplineSet
Substitution2: "'smcp' Lowercase to Small Capitals in Latin lookup 0-1" L.sc
EndChar

StartChar: u
Encoding: 75 117 34
GlifName: u
Width: 728
VWidth: 79
Flags: HMW
AnchorPoint: "bottom" 698 -1 basechar 0
AnchorPoint: "top" 340 601 basechar 0
LayerCount: 3
Fore
SplineSet
-4 589 m 1
 88 584 169 592 239 601 c 1
 222 514 215 401 215 295 c 0
 215 251 217 211 221 181 c 0
 230 118 275 85 334 85 c 0
 435 85 503 181 503 181 c 1
 528 144 l 1
 479 76 369 -14 262 -14 c 0
 186 -14 128 23 114 117 c 0
 111 139 108 180 108 225 c 0
 108 296 113 376 116 452 c 0
 119 523 32 527 2 525 c 1
 -4 589 l 1
376 591 m 1
 449 586 568 593 625 603 c 1
 615 461 l 1
 500 448 l 1
 505 535 422 533 384 531 c 1
 376 591 l 1
496 120 m 1
 498 161 498 203 498 247 c 0
 498 271 498 294 498 319 c 0
 498 405 499 481 509 581 c 1
 624 593 l 1
 613 449 607 312 607 220 c 0
 607 115 599 59 711 56 c 1
 720 0 l 1
 502 0 l 1
 502 0 509 102 515 128 c 1
 515 137 517 141 514 141 c 0
 507 141 496 120 496 120 c 1
EndSplineSet
Substitution2: "'smcp' Lowercase to Small Capitals in Latin lookup 0-1" U.sc
EndChar

StartChar: k
Encoding: 65 107 35
GlifName: k
Width: 732
VWidth: 79
Flags: HMW
LayerCount: 3
Fore
SplineSet
38 61 m 1
 42.2890625 60.7744140625 46.4423828125 60.6630859375 50.4609375 60.6630859375 c 0
 115.390625 60.6630859375 147.05859375 88.4658203125 153 136 c 0
 159.1953125 219.635742188 161.936523438 350.48046875 161.936523438 483.1171875 c 0
 161.936523438 564.575195312 160.90234375 646.709960938 159 719 c 0
 154 763 124 766 46 766 c 1
 39 829 l 1
 123.272460938 826.969726562 286.676757812 850 287 850 c 1
 267.733398438 685.852539062 261.533203125 325.422851562 261.533203125 171.083984375 c 0
 261.533203125 75.572265625 292.33203125 50.8447265625 349.255859375 50.8447265625 c 0
 351.532226562 50.8447265625 353.474609375 50.9150390625 355 51 c 1
 365 0 l 1
 257.666992188 0 155.333007812 0 48 0 c 1
 38 61 l 1
243 307 m 1
 263 376 l 1
 291 372 314 366 341 366 c 1
 360.402985075 376 429.28358209 434 471 497 c 0
 485 518 491 544 413 541 c 1
 394 594 l 1
 470.114942529 588 556.114942529 590 652 594 c 1
 665 546 l 1
 634.240506329 544 614.313397003 529.486062264 584 498 c 0
 517.569832402 429 443.441340782 341 414 314 c 1
 383 307 295 307 243 307 c 1
307 341 m 1
 336 334 383 347 417 357 c 1
 411.178710938 343.541992188 539.897460938 65.763671875 710 63 c 1
 722 12 l 1
 658 -7 609.956054688 -9.6650390625 566 -8 c 1
 474.795898438 8.1943359375 343.147460938 266.52734375 307 341 c 1
EndSplineSet
Substitution2: "'smcp' Lowercase to Small Capitals in Latin lookup 0-1" K.sc
EndChar

StartChar: j
Encoding: 64 106 36
GlifName: j
Width: 366
VWidth: 79
Flags: HMW
LayerCount: 3
Fore
SplineSet
-51 -240 m 1
 -28 -189 l 1
 68 -213 140 -151 154 -3 c 1
 261 -8 l 1
 263 -184 196 -263 69 -264 c 0
 14 -265 -37 -248 -51 -240 c 1
18 594 m 1
 131 592 271 605 271 605 c 1
 261 470 260 67 261 -20 c 1
 154 -10 l 1
 169 190 156 396 150 458 c 0
 145.638671875 503.06640625 116 533 24 533 c 1
 18 594 l 1
EndSplineSet
Refer: 114 729 S 1 0 0 1 201 171 2
EndChar

StartChar: comma
Encoding: 9 44 37
GlifName: comma
Width: 278
VWidth: 79
Flags: HMW
LayerCount: 3
Fore
SplineSet
37.705078125 -156.932617188 m 1
 111.69140625 -186.944335938 l 1
 157.313476562 -132.368164062 219.26171875 6.0419921875 220.772460938 111.734375 c 1
 187.956054688 121.088867188 122.510742188 127.654296875 84.1708984375 123.06640625 c 1
 85.84765625 24.1748046875 62.216796875 -90.5927734375 37.705078125 -156.932617188 c 1
EndSplineSet
EndChar

StartChar: acute
Encoding: 89 180 43
GlifName: acute
Width: 0
VWidth: 0
Flags: HMW
AnchorPoint: "top" 1 612 mark 0
LayerCount: 3
Fore
SplineSet
-137 747 m 13
 -117 693 l 21
 1 728 88 775 151 811 c 13
 91 905 l 21
 48 849 -65 779 -137 747 c 13
EndSplineSet
EndChar

StartChar: x
Encoding: 78 120 50
GlifName: x
Width: 643
VWidth: 79
Flags: HMW
LayerCount: 3
Fore
SplineSet
31 54 m 1
 83.763671875 52.9638671875 120.103518938 82.7207681582 145 114 c 0
 172.856445312 148.998046875 243.8125 255.208007812 286 315 c 1
 300 324 l 1
 340.782226562 378.333007812 390.711101971 438.750236332 419 487 c 0
 433.452451916 511.65021397 431 540.161132812 370 541 c 1
 359 599 l 1
 437.012875536 593 527.536132812 593 597 598 c 1
 605 544 l 1
 550.165039062 541 523.27734375 509.876953125 489 465 c 0
 443.45703125 405.373046875 385.77734375 328.368164062 356 288 c 1
 346 280 l 5
 306 237.0859375 260.725585938 165.224609375 228 114 c 0
 205.340820312 78.533203125 196.565429688 47 268 50 c 1
 280 -2 l 1
 40 -2 l 1
 31 54 l 1
32 598 m 1
 130.147460938 592 218.735351562 592 296 597 c 1
 306 542 l 1
 249.283203125 540.896484375 235.908203125 519.0859375 260 478 c 0
 280.466796875 443.095703125 316.541992188 385 348 340 c 1
 362 322 l 1
 396.216796875 275.860351562 452.561523438 186.462890625 510.462890625 117 c 0
 547.860351562 72.134765625 574.491210938 59.068359375 607 58 c 1
 622 -2 l 1
 346 -2 l 1
 337 53 l 1
 392 51.9638554217 427.924804688 66.462890625 392 116 c 0
 357.456054688 163.6328125 314.709960938 236.553710938 274 285 c 1
 266 284 l 1
 235.182617188 335.548828125 188.290039062 403.08203125 145 472 c 0
 107.759532551 531.28701908 76.755859375 541 38 540 c 1
 32 598 l 1
EndSplineSet
Substitution2: "'smcp' Lowercase to Small Capitals in Latin lookup 0-1" X.sc
EndChar

StartChar: dieresis
Encoding: 86 168 51
GlifName: dieresis
Width: 0
VWidth: 0
Flags: HMW
AnchorPoint: "top" 1 612 mark 0
LayerCount: 3
Fore
SplineSet
42.2705078125 754.719726562 m 0
 42.2705078125 789.6875 70.2421875 817.662109375 105.211914062 817.662109375 c 0
 140.177734375 817.662109375 163.153320312 789.6875 163.153320312 754.719726562 c 0
 163.153320312 719.751953125 140.177734375 691.77734375 105.211914062 691.77734375 c 0
 70.2421875 691.77734375 42.2705078125 719.751953125 42.2705078125 754.719726562 c 0
-171.624023438 756.119140625 m 4
 -171.624023438 791.0859375 -143.6484375 815.24609375 -108.6796875 815.24609375 c 4
 -73.7138671875 815.24609375 -45.1025390625 787.271484375 -45.1025390625 752.3046875 c 4
 -45.1025390625 717.334960938 -73.0771484375 693.177734375 -108.044921875 693.177734375 c 4
 -143.012695312 693.177734375 -171.624023438 721.151367188 -171.624023438 756.119140625 c 4
EndSplineSet
EndChar

StartChar: z
Encoding: 80 122 52
GlifName: z
Width: 568
VWidth: 79
Flags: HMW
LayerCount: 3
Fore
SplineSet
37 58 m 5
 43 0 l 5
 207 0 269 0 524 0 c 1
 537 55 538 118 536 181 c 1
 534 181 487 175 477 175 c 1
 477 125 468.808785363 80.3874413207 454 78 c 0
 379.56657924 66 307.551724138 67 299 67 c 0
 189 68 201.808390483 88.4919737378 241 150 c 0
 261.066017602 181.491973738 484.58655182 491 540 546 c 1
 534 598 l 1
 460.944680851 593 223.021276596 588 70 598 c 1
 65 542 63 471 68 418 c 1
 129 424 l 1
 127 444 137 503 148 521 c 1
 196 529 327 534 383 525 c 1
 341.763688761 453.386609071 143.611328125 166.932617188 37 58 c 5
EndSplineSet
EndChar

StartChar: E
Encoding: 31 69 54
GlifName: E_
Width: 697
VWidth: 79
Flags: HMW
AnchorPoint: "bottom" 651 0 basechar 0
AnchorPoint: "top" 348 801 basechar 0
LayerCount: 3
Fore
SplineSet
35 61 m 1
 112 67 118.228515625 92.3095703125 122 141 c 0
 133 283 137.446289062 488.251953125 128 663 c 0
 125.384765625 711.381835938 111 740 41 739 c 1
 36 800 l 1
 112 794 263 795 346 795 c 0
 432 795 544 796 641 801 c 1
 641 801 642 744 642 720 c 24
 642 661 635 597 635 597 c 1
 563 604 l 1
 556 663 531 732 488 771 c 1
 583 722 l 1
 502 730 411 733 312 733 c 0
 262 733 250 703 247 673 c 0
 226.733398438 470.333984375 232.42578125 258.495117188 237 135 c 0
 238 108 243 77 279 73 c 0
 368.895507812 63.01171875 529 78 580 91 c 1
 502 29 l 1
 545 78 568 138 583 204 c 1
 655 212 l 1
 655.223632812 206.556640625 657 85.775390625 651 0 c 1
 460 0 232 0 41 0 c 1
 35 61 l 1
172 367 m 1
 172 443 l 1
 400 444 l 1
 552 461 l 1
 552 370 l 1
 427 377 297 369 172 367 c 1
EndSplineSet
Substitution2: "'smcp' Lowercase to Small Capitals in Latin lookup 0-1" E.sc
EndChar

StartChar: F
Encoding: 32 70 55
GlifName: F_
Width: 667
VWidth: 79
Flags: HMW
AnchorPoint: "top" 339 812 basechar 0
LayerCount: 3
Fore
SplineSet
45 61 m 1
 132 67 124 89 132 137 c 1
 243 146 l 1
 241 51 324 50 341 51 c 1
 351 0 l 1
 52 0 l 1
 45 61 l 1
43 800 m 1
 119 794 229 794 312 794 c 0
 398 794 508 796 635 801 c 1
 635 801 636 744 636 720 c 24
 636 661 629 588 629 588 c 1
 557 596 l 1
 550 655 525 732 482 771 c 1
 567 721 l 1
 329 728 l 2
 271 729 255 705 252 663 c 0
 236 443 239 202 243 145 c 0
 246 101 244 49 323 49 c 1
 307 1 l 1
 104 0 l 1
 104 0 123 72 131 136 c 0
 141 270 146.46484375 482.385742188 137 663 c 0
 134.46484375 711.385742188 125 738 49 739 c 1
 43 800 l 1
160 379 m 1
 160 453 l 1
 396 454 l 1
 530 471 l 1
 530 372 l 1
 405 379 285 381 160 379 c 1
EndSplineSet
Substitution2: "'smcp' Lowercase to Small Capitals in Latin lookup 0-1" F.sc
EndChar

StartChar: P
Encoding: 42 80 56
GlifName: P_
Width: 676
VWidth: 79
Flags: HMW
AnchorPoint: "top" 329 812 basechar 0
LayerCount: 3
Fore
SplineSet
23 799 m 1
 161 790 270 804 420 804 c 0
 584 804 656 715 657 605 c 0
 659.028320312 441.173828125 537.21484375 324.479492188 349 323 c 0
 308.337890625 322.680664062 230.58203125 329.922851562 211 340.982421875 c 1
 200.186523438 342.671875 237 363 237 363 c 1
 236 260.990234375 236.896484375 180.073242188 243 125 c 0
 249.451171875 67.9365234375 285 56 338 56 c 1
 351 0 l 1
 283 -1 119 0 45 0 c 1
 35 61 l 1
 104 61 122.521484375 81.1611328125 127 131 c 0
 146.321289062 346 136.780273438 519 131 629 c 0
 127.952148438 686.997070312 114 733 28 736 c 1
 23 799 l 1
239 421 m 1
 270.360351562 403.877929688 322.91796875 386.579101562 377 387 c 0
 498.576171875 387.947265625 545.030273438 482.602539062 546 574 c 0
 547.19921875 686.998046875 478 746 353 748 c 0
 306.994140625 748.736328125 267 740 244 731 c 1
 236 653 240 520.272460938 239 421 c 1
EndSplineSet
Substitution2: "'smcp' Lowercase to Small Capitals in Latin lookup 0-1" P.sc
EndChar

StartChar: S
Encoding: 45 83 57
GlifName: S_
Width: 608
VWidth: 153
Flags: HMW
AnchorPoint: "bottom" 272 -15 basechar 0
AnchorPoint: "top" 333 809 basechar 0
LayerCount: 3
Fore
SplineSet
52.4443359375 72.2587890625 m 0
 52.4443359375 115 56 156.666992188 64 208 c 1
 152 198 l 1
 156 138 159 91 197 47 c 1
 138 61 146 93 135 148 c 1
 175.39453125 101.0546875 198.484375 57.830078125 291.540039062 58.947265625 c 0
 380.211914062 60.01171875 423.348632812 126.995117188 423.348632812 187.5078125 c 0
 423.348632812 377.525390625 82.0205078125 413.450195312 82.0205078125 604.504882812 c 0
 82.0205078125 709.330078125 162.228515625 809.087890625 337.270507812 809.087890625 c 0
 447.201171875 809.087890625 529 777 529 777 c 1
 531.23046875 759.157226562 532.216796875 735.374023438 532.216796875 710.271484375 c 0
 532.216796875 667.841796875 529.3984375 624.64453125 525 597 c 1
 433 608 l 1
 431 656 413 729 386 791 c 1
 456 640 l 1
 436.779296875 663.267578125 404.393554688 747.01171875 302.131835938 747.01171875 c 0
 237.139648438 747.01171875 193.704101562 706.18359375 193.704101562 649.708984375 c 0
 193.704101562 509.158203125 546.774414062 453.083007812 546.774414062 221.365234375 c 0
 546.774414062 113.836914062 475.517578125 -12.1396484375 273 -13 c 0
 132.416015625 -13.59765625 55 17 55 17 c 1
 53.3330078125 32 52.4443359375 50.888671875 52.4443359375 72.2587890625 c 0
EndSplineSet
Substitution2: "'smcp' Lowercase to Small Capitals in Latin lookup 0-1" S.sc
EndChar

StartChar: U
Encoding: 47 85 58
GlifName: U_
Width: 767
VWidth: 79
Flags: HMW
AnchorPoint: "bottom" 458 -1 basechar 0
AnchorPoint: "top" 388 801 basechar 0
LayerCount: 3
Fore
SplineSet
-22 800 m 1
 92.9477573956 795.550203873 191.322916098 794.255464406 319 801 c 1
 319 801 324 755 327 736 c 1
 226 730 210 699 205 632 c 0
 196 504 194 295 198 252 c 0
 208 135 267.870117188 50.642578125 407 62 c 0
 501.94140625 69.75 566.083007812 146.329101562 575 267 c 0
 584 388.791992188 578.444335938 515.369140625 577 641 c 1
 577 642 l 1
 576 733 530 741 460 741 c 1
 457 757 453 790 451 799 c 1
 552.322265625 794.7890625 680.909045474 795.955284652 758 800 c 1
 758 800 763 754 766 735 c 1
 696 732 668.943359375 716.228515625 666 663 c 0
 656.943359375 499.228515625 664.931640625 343.626953125 656 237 c 0
 640 46 490 -17 361 -17 c 0
 246 -17 82 27 82 232 c 0
 82 356 93 556 89 640 c 0
 85 711 70 738 -13 737 c 1
 -16 753 -20 791 -22 800 c 1
EndSplineSet
Substitution2: "'smcp' Lowercase to Small Capitals in Latin lookup 0-1" U.sc
EndChar

StartChar: I
Encoding: 35 73 59
GlifName: I_
Width: 408
VWidth: 79
Flags: HMW
AnchorPoint: "bottom" 268 -1 basechar 0
AnchorPoint: "top" 212 801 basechar 0
LayerCount: 3
Fore
SplineSet
30 800 m 1
 152.103515625 794.626953125 268.040039062 796.038085938 365 801 c 1
 365 801 370 758 373 739 c 1
 312 736 270.9921875 725.918945312 266 663 c 0
 255.516601562 530.87109375 249 368 257 153 c 0
 259.634765625 82.1904296875 310 50 362 54 c 1
 373 0 l 1
 42 -1 l 1
 34 62 l 1
 97 63 142.334960938 74.908203125 146 138 c 0
 152.444335938 248.939453125 156.061137548 455.000011327 149 638 c 0
 146.71568314 697.201503541 137 738.604492188 39 736 c 1
 36 752 32 791 30 800 c 1
EndSplineSet
Substitution2: "'smcp' Lowercase to Small Capitals in Latin lookup 0-1" I.sc
EndChar

StartChar: O
Encoding: 41 79 60
GlifName: O_
Width: 818
VWidth: 153
Flags: HMW
AnchorPoint: "top" 396 801 basechar 0
LayerCount: 3
Fore
SplineSet
47.400390625 340.75390625 m 0
 47.400390625 619.344726562 208.717773437 804.451171875 448.872070312 804.451171875 c 0
 613.876953125 804.451171875 769.27152511 677.769465647 769.27152511 437.126643748 c 0
 769.27152511 153.713506823 623.283203125 -15.33203125 394.458984375 -15.33203125 c 0
 166.665039062 -15.33203125 47.400390625 151.571289062 47.400390625 340.75390625 c 0
167.553710938 394.935546875 m 0
 167.553710938 203.08203125 248.446289062 60.810546875 411.190429688 60.810546875 c 0
 554.616210938 60.810546875 641.563476562 210.6328125 640.521484375 416.618164062 c 0
 639.603515625 598.053710938 542.826171875 735.587890625 399.106445312 734.264648438 c 0
 295.057221933 733.306656621 167.553710938 630.78515625 167.553710938 394.935546875 c 0
EndSplineSet
Substitution2: "'smcp' Lowercase to Small Capitals in Latin lookup 0-1" O.sc
EndChar

StartChar: T
Encoding: 46 84 68
GlifName: T_
Width: 691
VWidth: 79
Flags: HMW
AnchorPoint: "bottom" 324 -1 basechar 0
AnchorPoint: "top" 341 811 basechar 0
LayerCount: 3
Fore
SplineSet
8 604 m 1
 13 651 20 743 21 800 c 1
 129 794 215.995762788 792 334 792 c 0
 403 792 579 793 681 801 c 1
 679.043945312 773.125 669 602.036132812 669 598 c 1
 597 606 l 1
 590 665 565 732 522 771 c 1
 607 698 l 1
 518 729 419.288085938 724 334 724 c 0
 242.994140625 724 134 719 97 720 c 1
 151 761 l 1
 113 725 105 651 91 615 c 1
 8 604 l 1
159 61 m 1
 229.26953125 63.3017578125 263.362973866 98.5449524659 268.127929688 146.422851562 c 0
 286 326 284.192382811 571.58984375 274 699 c 0
 270.487734435 742.905170431 247 746 217 746 c 1
 210 759 l 1
 273 757 414 780 414 780 c 1
 386.97265625 572.426757812 376.535600286 301.886119284 390.706054688 129.139648438 c 0
 395.804607637 66.9851822948 450.279296875 63.0712890625 477 65 c 1
 488 0 l 5
 164 0 l 5
 159 61 l 1
EndSplineSet
Substitution2: "'smcp' Lowercase to Small Capitals in Latin lookup 0-1" T.sc
EndChar

StartChar: R
Encoding: 44 82 69
GlifName: R_
Width: 792
VWidth: 79
Flags: HMWO
AnchorPoint: "top" 341 812 basechar 0
LayerCount: 3
Fore
SplineSet
38 801 m 1
 176 792 301 806 441 806 c 4
 595 806 657 727 658 617 c 0
 660.028320312 453.173828125 514.217773438 354.188476562 366 353 c 0
 315.338867188 352.59375 245.58203125 361.922851562 226 366.982421875 c 1
 215.186523438 368.671875 252 408 252 408 c 1
 251 305.990234375 251.896484375 180.073472833 258 125 c 0
 264.451171875 67.9365234375 300 56 353 56 c 1
 366 0 l 1
 298 -1 134 0 60 0 c 1
 50 61 l 1
 119 61 140 81 142 131 c 0
 151 346 154 471 146 631 c 0
 143 689 129 735 43 738 c 1
 38 801 l 1
254 437 m 1
 285.360351562 427.877929688 336.91796875 418.568359375 376 420 c 0
 494.5 424.340820312 544.936523438 503.603515625 546 589 c 0
 547.282226562 691.997070312 492 745 362 747 c 0
 315.994140625 747.708007812 282 742 259 733 c 1
 251 655 255 536.272460938 254 437 c 1
362.561523438 400.3046875 m 1
 465.55078125 427.412109375 l 1
 530.46875 322.921875 671.780273438 60.2431640625 766 61 c 1
 778 0 l 1
 664 1 596 0 482 0 c 1
 468 57 l 1
 504 56 562.833984375 56.814453125 527 126 c 0
 513.236328125 152.57421875 416.83203125 313.393554688 362.561523438 400.3046875 c 1
EndSplineSet
Substitution2: "'smcp' Lowercase to Small Capitals in Latin lookup 0-1" R.sc
EndChar

StartChar: Q
Encoding: 43 81 70
GlifName: Q_
Width: 842
VWidth: 153
Flags: HMW
LayerCount: 3
Fore
SplineSet
234 12 m 1
 305 21 l 1
 361 -80 567 -126 680 -128 c 0
 803 -130 892 -96 892 -96 c 1
 907.965820312 -130 l 1
 898 -214 l 1
 835 -234 768 -240 655 -239 c 0
 411 -235 263 -58 234 12 c 1
EndSplineSet
Refer: 60 79 N 1 0 0 1 0 0 2
Substitution2: "'smcp' Lowercase to Small Capitals in Latin lookup 0-1" Q.sc
EndChar

StartChar: L
Encoding: 38 76 71
GlifName: L_
Width: 686
VWidth: 79
Flags: HMW
AnchorPoint: "top" 409 812 basechar 0
LayerCount: 3
Fore
SplineSet
53 63 m 1
 116 64 148 82 155.077148438 146.999023438 c 0
 169.09855194 275.776530785 169.360616467 489.828595357 160 663 c 0
 157.384787769 711.381426268 129 740 59 739 c 1
 53 800 l 1
 164.340820312 791.209960938 295.764648438 794.87890625 381 799 c 1
 388 738 l 1
 317.885742188 738 284.897460938 731.977539062 280 673 c 0
 263.18359375 470.502929688 262 198 264 145 c 0
 265.4921875 110.689453125 272.729492188 75.98828125 309 73 c 0
 369.060546875 68.322265625 479.036132812 75.1103515625 528.612304688 82.498046875 c 1
 548.350585938 120.482421875 562.489257812 165.979492188 567 204 c 1
 641 212 l 1
 647.008789062 166.50390625 647.5078125 26.798828125 642 0 c 1
 61 0 l 1
 53 63 l 1
EndSplineSet
Substitution2: "'smcp' Lowercase to Small Capitals in Latin lookup 0-1" L.sc
EndChar

StartChar: G
Encoding: 33 71 72
GlifName: G_
Width: 827
VWidth: 79
Flags: HMW
AnchorPoint: "top" 409 812 basechar 0
LayerCount: 3
Fore
SplineSet
34 322 m 0
 31 570 185 800 513 802 c 0
 633.998046875 802.737304688 713 777 713 777 c 1
 716 726 722 626 719 584 c 1
 653 587 l 1
 621 675 558 748 512 755 c 1
 526 776 708 757 655 662 c 1
 638 666 560.989257812 735.639648438 438 734 c 0
 288 732 165 582 162 386 c 0
 159 212 250 57 437 54 c 0
 546 52 596 86 641 138 c 1
 707 106 l 1
 634 1 502 -27 405 -27 c 0
 191 -27 36.5038782852 115.012728426 34 322 c 0
491 390 m 1
 604 382 678 385 786 390 c 1
 796 330 l 1
 779.15234375 330.935546875 711.45703125 338.250976562 711.45703125 261.010742188 c 0
 711.45703125 208.181640625 711.400390625 141.206054688 707 106 c 1
 571 46 l 1
 595.953125 108.3828125 598.501953125 192.282226562 597.641601562 263.15625 c 0
 594.362304688 303.723632812 565.821289062 329.622070312 497 326 c 1
 491 390 l 1
EndSplineSet
Substitution2: "'smcp' Lowercase to Small Capitals in Latin lookup 0-1" G.sc
EndChar

StartChar: D
Encoding: 30 68 73
GlifName: D_
Width: 820
VWidth: 79
Flags: HMW
AnchorPoint: "top" 409 812 basechar 0
LayerCount: 3
Fore
SplineSet
23 60 m 1
 92 56 133 80 135 130 c 0
 144 345 147 469 139 629 c 0
 136 687 128 743 36 736 c 1
 29 799 l 1
 211 788 336 804 426 804 c 0
 649 804 765.793775353 688.999357899 767 471 c 0
 768.471940759 204.978126517 619 4 342 0 c 0
 274 -1 107 0 33 0 c 1
 23 60 l 1
242.2578125 445 m 0
 241.146484375 322.622070312 237.450073868 224.11609757 246 144 c 0
 251.025390625 96.91015625 297.999023438 77.0478515625 399 78 c 0
 566.018332002 79.5745020421 652.422851562 238.931640625 654 414 c 0
 655.657991441 598.042183104 575 734 388 738 c 0
 334.002615501 739.155024267 283 729 256 719 c 1
 249.448214333 622.361161408 243.028320312 529.862304688 242.2578125 445 c 0
EndSplineSet
Substitution2: "'smcp' Lowercase to Small Capitals in Latin lookup 0-1" D.sc
EndChar

StartChar: J
Encoding: 36 74 74
GlifName: J_
Width: 422
VWidth: 79
Flags: HMW
AnchorPoint: "top" 209 812 basechar 0
LayerCount: 3
Fore
SplineSet
-34 -193 m 1
 -7 -142 l 1
 173 -187 162 -18 166 84 c 0
 171 205 157.259390644 469.989357812 155 653 c 0
 154 734 77 736 47 736 c 1
 44 752 42 791 40 800 c 1
 158.779296875 794.202148438 243.595703125 793.897460938 374 801 c 1
 374 801 379 755 382 736 c 1
 311 733 280 720 277 665 c 0
 266 415 267 261 273 39 c 0
 277 -94 243 -226 76 -227 c 0
 21 -227 -20 -201 -34 -193 c 1
EndSplineSet
Substitution2: "'smcp' Lowercase to Small Capitals in Latin lookup 0-1" J.sc
EndChar

StartChar: K
Encoding: 37 75 75
GlifName: K_
Width: 851
VWidth: 79
Flags: HMW
AnchorPoint: "top" 409 812 basechar 0
LayerCount: 3
Fore
SplineSet
58 800 m 1
 180.103515625 793.626953125 282.040039062 795.038085938 389 801 c 1
 389 801 394 758 397 739 c 1
 346 740 288.9921875 726.918945312 284 664 c 0
 273.516601562 531.87109375 267 358 275 143 c 0
 277.634765625 72.1904296875 328 53 380 57 c 1
 391 0 l 1
 73 -1 l 1
 65 63 l 1
 131 65 158.334960938 76.908203125 162 140 c 0
 168.444335938 250.939453125 167.055664062 460 167 643 c 0
 166.98046875 707.439453125 144 739 66 737 c 1
 63 753 60 791 58 800 c 1
322.5625 423.700195312 m 1
 360.275390625 457.525390625 479.247822268 583.96875 561 690 c 0
 575.605724158 709.869140625 572.261538462 739 500 736 c 1
 491 797 l 1
 611 792 755 800 755 800 c 1
 764 741 l 1
 724 742 696.894359428 717.095420129 668 685 c 0
 612.439453125 623.284179688 468.676757812 465.565429688 415.55078125 409.412109375 c 1
 436 436.169921875 l 5
 528.478515625 328.974609375 717.400078868 60.2819777312 794 61 c 1
 806 0 l 1
 692 1 627 0 513 0 c 1
 499 57 l 1
 535 56 589.560546875 61.3994140625 544 126 c 0
 525.6875 151.96484375 403.83203125 310.1484375 333.561523438 391.3046875 c 1
 322.5625 423.700195312 l 1
EndSplineSet
Substitution2: "'smcp' Lowercase to Small Capitals in Latin lookup 0-1" K.sc
EndChar

StartChar: Z
Encoding: 52 90 76
GlifName: Z_
Width: 732
VWidth: 79
Flags: HMW
AnchorPoint: "top" 359 812 basechar 0
LayerCount: 3
Fore
SplineSet
29 71 m 1
 123 138 381 542 481 702 c 0
 492 720 497 733 447 733 c 0
 374 733 264 730 206 726 c 1
 183 686 172 636 167 595 c 1
 85 587 l 1
 85 587 80 660 80 719 c 0
 80 743 79 800 79 800 c 1
 126 797 243.9765625 798.073242188 330 798 c 0
 412.977539062 797.9296875 580 796 656 800 c 1
 664 739 l 1
 575 672 206 74 187 56 c 1
 146 107 l 1
 177 77 257.923828125 73.68359375 319 73 c 0
 401.0009613 72.082205991 520 72 567 79 c 1
 586 117 596 166 600 204 c 1
 682 212 l 1
 682 212 685 139 685 80 c 0
 685 56 684 0 684 0 c 1
 471 0 247 0 34 0 c 1
 35 14 27 46 29 71 c 1
EndSplineSet
Substitution2: "'smcp' Lowercase to Small Capitals in Latin lookup 0-1" Z.sc
EndChar

StartChar: Y
Encoding: 51 89 77
GlifName: Y_
Width: 724
VWidth: 79
Flags: HMW
AnchorPoint: "top" 358 801 basechar 0
LayerCount: 3
Fore
SplineSet
-16 802 m 1
 98 797 182 799 296 802 c 1
 310 748 l 1
 234 742 214.208007812 724.108398438 241 670 c 4
 265.208007812 621.108398438 295 553 331 488 c 5
 342 453 364 385 364 385 c 1
 408 457 476.981561694 557.437726737 535 665 c 0
 565.981561694 722.437726737 514 742 446 739 c 1
 437 802 l 1
 534 796 630 798 727 802 c 1
 738 744 l 1
 678 742 649 710 620 662 c 0
 524 505 443 402 406 322 c 1
 377 319 338 310 304 300 c 1
 250 402 213.022346863 480.458921208 111 668 c 0
 77.0223468626 730.458921208 39 745 -8 744 c 1
 -16 802 l 1
195 69 m 1
 268 54 289 93 296 145 c 0
 303 196 304 249 290 373 c 1
 421 385 l 1
 399 243 412 169 423 122 c 0
 434 73 455 62 507 69 c 1
 528 0 l 1
 203 -1 l 1
 195 69 l 1
EndSplineSet
Substitution2: "'smcp' Lowercase to Small Capitals in Latin lookup 0-1" Y.sc
EndChar

StartChar: X
Encoding: 50 88 78
GlifName: X_
Width: 806
VWidth: 79
Flags: HMW
LayerCount: 3
Fore
SplineSet
6 66 m 1
 93 66 118.25 104.639648438 152 147 c 0
 193.056380404 198.530746897 289 335 342 419 c 1
 380 447 l 1
 431 512 490 604 522 656 c 0
 560.559431125 718.659075578 534 730 462 731 c 1
 454 801 l 1
 552 794 676 794 763 801 c 1
 772 736 l 1
 693 736 651.447265625 698.252929688 598 626 c 0
 544 553 470 447 434 395 c 1
 415 382 l 1
 361 323 301.4296875 234.892578125 260 163 c 0
 233.4296875 116.892578125 217 61 309 61 c 1
 318 1 l 1
 14 1 l 1
 6 66 l 1
20 801 m 1
 126 792 258 799 357 800 c 1
 368 736 l 1
 266 735 270.138671875 703.1640625 299 653 c 0
 340.848215812 580.263337888 403.472438872 469.05420893 419 444 c 0
 629 96 643 62 747 62 c 1
 763 1 l 1
 409 1 l 1
 397 62 l 1
 455 63 502 73 463 143 c 0
 429.775390625 202.633789062 379 295 345 353 c 5
 328 373 l 1
 285 449 237.399414062 525.103515625 176 625 c 0
 123.571289062 710.30078125 121 734 28 734 c 1
 20 801 l 1
EndSplineSet
Substitution2: "'smcp' Lowercase to Small Capitals in Latin lookup 0-1" X.sc
EndChar

StartChar: N
Encoding: 40 78 79
GlifName: N_
Width: 926
VWidth: 79
Flags: HMW
AnchorPoint: "top" 459 812 basechar 0
LayerCount: 3
Fore
SplineSet
230 719 m 1053
28 800 m 1,8,9
 127 794 189 795 293 798 c 1,10,11
 354.9765625 703.828125 533.352539062 439.189453125 653.901367188 266 c 0,0,0
 683.123046875 224.017578125 695.830078125 94.583984375 713 70 c 1,12,13
 688 96 l 1,14,15
 706 177 704 508 695 633 c 0,16,17
 688 724 656 736 586 736 c 1,18,19
 583 752 579 791 577 800 c 1,20,21
 633 796 672 793 744 794 c 0,22,23
 785 794 826 794 887 801 c 1,24,25
 887 801 893 757 896 738 c 1,26,27
 835 739 807 720 802 665 c 0,28,29
 787 486 790 215 798 0 c 1,30,31
 770 -4 741 -5 691 -16 c 1,32,-1
 689 -17 l 1,33,34
 519.622070312 238.948242188 426.517578125 383.174804688 288.1953125 574 c 0,0,0
 284.333007812 579.327148438 233.883789062 713.66015625 230 719 c 4,0,0
 225.159179688 725.655273438 242 700 242 700 c 1,35,36
 230 518 234 188 240 141 c 0,37,38
 251 71 288 56 340 56 c 1,39,-1
 349 0 l 1,40,-1
 39 -1 l 1,41,-1
 31 61 l 1,0,1
 104 62 133 79 138 162 c 0,2,3
 146 273 147.310546875 468.967773438 145 633 c 0,4,5
 144 704 106 736 36 736 c 1,6,7
 33 752 30 791 28 800 c 1,8,9
EndSplineSet
Substitution2: "'smcp' Lowercase to Small Capitals in Latin lookup 0-1" N.sc
EndChar

StartChar: M
Encoding: 39 77 80
GlifName: M_
Width: 1153
VWidth: 79
Flags: HMW
AnchorPoint: "top" 549 812 basechar 0
LayerCount: 3
Fore
SplineSet
47 800 m 5
 146 795 215 796 309 799 c 5
 346 716 505.655273438 420.788085938 565 265 c 5
 579.146309032 215.746404142 586.199227515 149.121927747 588 90 c 5
 616 40 l 5
 547 19 l 5
 516.141620362 95.3338864726 379.561523438 397.256835938 299.474609375 556 c 4
 287.940429688 577.73828125 264.020507812 701.46875 255 715 c 5
 265 703 l 5
 253 521 262 183 268 139 c 4
 279 69 302 55 364 55 c 5
 375 0 l 5
 57 -1 l 5
 49 61 l 5
 122 59 163 79 168 152 c 4
 175.604642921 263.027786639 177.025390625 480.963867188 175 645 c 4
 174 726 114 736 54 736 c 5
 51 752 49 791 47 800 c 5
544 81 m 5
 645 299 792 681 839 798 c 5
 903 793 1006 793 1105 800 c 5
 1114 737 l 5
 1044 737 1002.48040516 723.968188755 1000 643 c 4
 994.974860829 478.963727148 997 263 1005 152 c 4
 1010 69 1037 53 1110 55 c 5
 1120 -1 l 5
 784 0 l 5
 775 61 l 5
 837 59 874 69 885 139 c 4
 891 186 895 548 883 730 c 5
 876 720 898.567382812 750.858398438 893 740 c 4
 877.451171875 709.674804688 865.9765625 642.3671875 850.83203125 605 c 5
 776.166992188 442.26171875 695.812025026 242.502921309 617 40 c 5
 544 81 l 5
EndSplineSet
Substitution2: "'smcp' Lowercase to Small Capitals in Latin lookup 0-1" M.sc
EndChar

StartChar: grave
Encoding: 54 96 81
GlifName: grave
Width: 0
VWidth: 0
Flags: HMW
AnchorPoint: "top" 1 612 mark 0
LayerCount: 3
Fore
SplineSet
-151 780 m 13
 -91 874 l 21
 -48 818 65 748 137 716 c 13
 117 662 l 21
 -1 697 -88 744 -151 780 c 13
EndSplineSet
EndChar

StartChar: question
Encoding: 26 63 83
GlifName: question
Width: 542
VWidth: 153
Flags: HMW
LayerCount: 3
Fore
SplineSet
80 732 m 1
 192 732 l 1
 182 697 175 627 172 592 c 1
 87 580 l 1
 79 612 75 697 80 732 c 1
80 732 m 1
 133 765 220 801 307 801 c 0
 426 801 524 734 496 580 c 0
 461 393 298 345 213 318 c 1
 208 310 261 378 261 364 c 0
 261 299 270 220 274 199 c 5
 161 197 l 5
 162 234 167 340 168 364 c 1
 220 369 366 400 387 532 c 0
 404 636 356 722 232 732 c 0
 178 736 135 710 105 693 c 1
 80 732 l 1
EndSplineSet
Refer: 11 46 N 1 0 0 1 66 -10 2
EndChar

StartChar: quotesingle
Encoding: 5 39 84
GlifName: quotesingle
Width: 206
VWidth: 79
Flags: HMW
LayerCount: 3
Fore
SplineSet
25.99609375 551.19921875 m 1
 67.4169921875 532.291015625 l 1
 104.537109375 593.125976562 158.446289062 709.481445312 171.279296875 780.151367188 c 1
 132.608398438 811.336914062 70.1064453125 792.428710938 52.576171875 777.809570312 c 1
 49.130859375 714.051757812 36.572265625 624.30078125 25.99609375 551.19921875 c 1
EndSplineSet
EndChar

StartChar: quotedblright
Encoding: 257 8221 86
GlifName: quotedblright
Width: 391
VWidth: 79
Flags: HMW
LayerCount: 3
Fore
SplineSet
205.549804688 559.0859375 m 1
 255.60546875 544.27734375 l 1
 302.724974504 597.432617188 352.543192912 710.33203125 344.387695312 782.46484375 c 1
 310.828063743 817.73046875 245.434970707 806.282226562 227.17578125 793.6875 c 1
 245.422851562 714.40781902 229.103515625 632.850324795 205.549804688 559.0859375 c 1
42.576171875 787.809570312 m 1
 69.130859375 714.051757812 61.572265625 634.30078125 45.99609375 561.19921875 c 1
 99.4169921875 542.291015625 l 1
 133.0190159 584.125976562 175.657262818 719.481445312 161.279296875 790.151367188 c 1
 123.869031317 821.336914062 59.5349758104 802.428710938 42.576171875 787.809570312 c 1
EndSplineSet
EndChar

StartChar: quotedblleft
Encoding: 256 8220 87
GlifName: quotedblleft
Width: 391
VWidth: 79
Flags: HMW
LayerCount: 3
Fore
SplineSet
-1 577 m 1
 31 539 99 546 119 557 c 1
 107.138798035 650.560546875 121.038095032 717.220703125 143.125976562 782 c 1
 99 811 l 1
 58.3251161851 770.785407725 -4.9603960396 662.364806867 -1 577 c 1
183 573 m 1
 215 535 283 542 303 553 c 1
 292.122070312 646.560546875 304.869140625 713.220703125 325.125976562 778 c 1
 284 806 l 1
 232 766 179 658 183 573 c 1
EndSplineSet
EndChar

StartChar: exclam
Encoding: 1 33 102
GlifName: exclam
Width: 330
VWidth: 153
Flags: HMW
LayerCount: 3
Fore
SplineSet
89 772 m 1
 116 796 203 805 237 801 c 1
 215.63671875 608.21875 200.844726562 435.486328125 193 208 c 1
 112 206 l 1
 105 399 97 610 89 772 c 1
EndSplineSet
Refer: 11 46 N 1 0 0 1 0 -10 2
EndChar

StartChar: parenright
Encoding: 7 41 103
GlifName: parenright
Width: 371
VWidth: 153
Flags: HMW
LayerCount: 3
Fore
SplineSet
52 -95 m 5
 133 37 189.716796875 241.00390625 192 402 c 4
 194 543 163 696 69 814 c 5
 131 865 l 5
 184 817 292 683 307 489 c 4
 325 262 237 54 117 -133 c 5
 52 -95 l 5
EndSplineSet
EndChar

StartChar: parenleft
Encoding: 6 40 104
GlifName: parenleft
Width: 371
VWidth: 153
Flags: HMW
LayerCount: 3
Fore
SplineSet
81 235 m 0
 63 462 145 696 265 883 c 1
 336 849 l 1
 255 717 199 483 201 322 c 0
 202 191 215 18 319 -110 c 1
 257 -164 l 1
 199 -118 96 41 81 235 c 0
EndSplineSet
EndChar

StartChar: hyphen
Encoding: 10 45 105
GlifName: hyphen
Width: 589
VWidth: 153
Flags: HMW
LayerCount: 3
Fore
SplineSet
47 343 m 1
 61 432 l 1
 254 422 356 422 528 432 c 1
 526 405 520 377 518 343 c 1
 47 343 l 1
EndSplineSet
EndChar

StartChar: underscore
Encoding: 53 95 106
GlifName: underscore
Width: 669
VWidth: 153
Flags: HMW
LayerCount: 3
Fore
SplineSet
39 1 m 5
 53 96 l 5
 246 86 457 86 629 96 c 5
 627 69 621 35 619 1 c 5
 39 1 l 5
EndSplineSet
EndChar

StartChar: emdash
Encoding: 253 8212 107
GlifName: emdash
Width: 1000
VWidth: 153
Flags: HMW
LayerCount: 3
Fore
SplineSet
39 328 m 1
 39 433 l 1
 960 433 l 1
 960 328 l 1
 39 328 l 1
EndSplineSet
EndChar

StartChar: alpha
Encoding: 266 945 109
GlifName: alpha
Width: 709
VWidth: 0
Flags: HMW
LayerCount: 3
Fore
SplineSet
29.3828125 286.009765625 m 0
 44.869140625 485.590820312 153.244140625 597.340820312 268.766601562 602.721679688 c 0
 416.728515625 609.61328125 497.149414062 474.654296875 511.671875 367.21484375 c 1
 505.577148438 391.4453125 468.541015625 343.546875 466.8671875 355.211914062 c 0
 452.08203125 458.2734375 353.829101562 500.404296875 276 501.022460938 c 0
 184.990234375 501.745117188 98.0634765625 435.7734375 88.109375 310.974609375 c 0
 79.4837880583 202.831937185 140.91796875 87.890625 267.830078125 98.5185546875 c 0
 349.416992188 105.350585938 435.588867188 176.751953125 456.387695312 248.087890625 c 1
 470.059570312 193.737304688 469.346679688 205.77734375 471.948242188 198.1640625 c 1
 477.625 194.745117188 l 1
 453.154296875 128.02734375 358.14453125 -5.66015625 217.444335938 -5.1357421875 c 0
 95.37890625 -4.6806640625 14.6953125 96.7255859375 29.3828125 286.009765625 c 0
451.026367188 185.362304688 m 1
 451.026367188 185.362304688 475.567382812 533.321289062 480.505859375 618.321289062 c 1
 527.67578125 622.60546875 563.330078125 625.584960938 602.556640625 633.682617188 c 1
 593.5859375 599.458007812 534.553710938 381.264648438 534.553710938 272.651367188 c 0
 534.553710938 150.390625 573.502929688 56.5615234375 690.927734375 79.3173828125 c 1
 684.25 40.873046875 l 1
 637.30078125 0.251953125 570.079101562 -15.841796875 513.015625 -2.5751953125 c 0
 454.463488347 11.0375025883 447.4296875 76.25390625 451.026367188 185.362304688 c 1
EndSplineSet
EndChar

StartChar: uni03F5
Encoding: 267 1013 110
GlifName: uni03F_5
Width: 507
VWidth: 0
Flags: HMW
LayerCount: 3
Fore
SplineSet
49 160 m 0
 49.798828125 84.6279296875 96.91015625 -6.9267578125 262 -9 c 0
 378.073242188 -10.4580078125 439.227539062 34 487 74 c 1
 473 115 l 1
 403 78.6669921875 353.556640625 63.408203125 271 65 c 0
 197.486328125 66.41796875 141.32421875 104.1953125 140 167 c 4
 138.801757812 223.829101562 170.615234375 259.873046875 186 269 c 1
 252.75390625 252.094726562 338.733398438 273.545898438 372 295 c 1
 362 327 l 1
 331.04296875 363.838867188 202.188476562 357.408203125 156 324.396484375 c 1
 152.059570312 327.419921875 225.826171875 301.536132812 221 305 c 0
 199.443359375 320.474609375 160.025390625 357.518554688 161 430 c 0
 161.854492188 493.546875 208.66796875 533.056640625 281 545.033203125 c 0
 329.556640625 553.073242188 375.009765625 551.750976562 445 541 c 1
 455 596 l 1
 378.385742188 619.302734375 314.783203125 620.095703125 254 614 c 0
 168.224609375 605.397460938 77.0771484375 544.504882812 72 451 c 0
 68.8779296875 393.493164062 96 310 162 283 c 1
 158.30859375 280.762695312 136.034179688 316.58203125 132.106445312 314 c 0
 94.205078125 289.090820312 48.2724609375 228.6484375 49 160 c 0
EndSplineSet
EndChar

StartChar: eta
Encoding: 268 951 111
GlifName: eta
Width: 682
VWidth: 0
Flags: HMW
LayerCount: 3
Fore
SplineSet
-4 547 m 1
 9 513 l 1
 118.181640625 535.568359375 150.356445312 480.41015625 150.62109375 331 c 0
 150.84765625 203 134.0859375 35.3896484375 125 0 c 1
 142.23828125 0.30859375 198.619140625 -0.5986328125 227 0 c 1
 227.549804688 39.03125 231.175241763 286.938718001 231.859375 331 c 0
 232.979492188 403.140625 296.555242546 508.419151608 412 510 c 0
 504.139648438 511.26171875 531.096679688 413.249023438 525.618164062 236 c 0
 517.764882996 -18.0809399305 469.327148438 -162.576171875 427.926757812 -326 c 1
 545 -306 l 1
 567.767578125 -283.499023438 640.623046875 289.604492188 602 480 c 0
 583.115234375 573.094726562 521.418214829 624.36844157 425 608 c 0
 356.131835938 596.30859375 282.168945312 546.415039062 235.55859375 469 c 1
 233.5 561.040039062 198.830078125 600.713867188 141 601.33203125 c 0
 74.7927316367 602.039741758 18.0830078125 568.346679688 -4 547 c 1
EndSplineSet
EndChar

StartChar: iota
Encoding: 269 953 112
GlifName: iota
Width: 419
VWidth: 0
Flags: HMW
LayerCount: 3
Fore
SplineSet
95 587 m 5
 114.46875 458.456054688 115.947541878 352.841107411 119.703772922 200.000003133 c 0
 122.467637429 87.5383099124 144.575711569 -28.7764029231 265 -29.33203125 c 0
 326.412109375 -29.615234375 372.517578125 13.6533203125 393 35 c 1
 380 79 l 1
 237.391601562 66.431640625 223.758789062 102.853515625 207.37890625 241 c 0
 189.229492188 394.07421875 220.9140625 568.450195312 220 607 c 1
 200.947265625 606.07421875 126.368164062 588.796875 95 587 c 5
EndSplineSet
EndChar

StartChar: rho
Encoding: 270 961 113
GlifName: rho
Width: 651
VWidth: 0
Flags: HMW
LayerCount: 3
Fore
SplineSet
53 272 m 0
 29.2744140625 39.2001953125 58.1181640625 -207.76953125 87.8740234375 -340.42578125 c 1
 206.448242188 -322.15625 l 1
 163.151367188 -197.4296875 92.2744140625 116.313476562 122 308 c 0
 144.076171875 450.356445312 249.176470165 515.852256718 339 512 c 0
 447.137695312 507.362304688 497 408 492 305 c 0
 487.959960938 221.782226562 437.057617188 97.9892578125 307 99 c 0
 221.037109375 99.66796875 148.092773438 150.162109375 109 182 c 5
 93 135 l 5
 110.12109375 99.87890625 182.081054688 -11.4599609375 324 -4 c 0
 486.19140625 4.525390625 558.6953125 205.096679688 564 300 c 0
 573 461 515 614 351 614 c 0
 196.006835938 614 74.3125 481.120117188 53 272 c 0
EndSplineSet
EndChar

StartChar: zero
Encoding: 13 48 115
GlifName: zero
Width: 696
VWidth: 153
Flags: HMW
LayerCount: 3
Fore
SplineSet
58.0029296875 322.139648438 m 0
 58.5724742092 561.438142354 189.084086515 686.567254982 349.72265625 688.151367188 c 0
 476.159086708 689.442879969 625.268500703 602.942029018 626.262695312 368.750976562 c 0
 627.062597777 181.668789483 539.680991203 -0.725213615498 349.286132812 -5.2470703125 c 4
 169.325714931 -9.43176533986 57.5300757986 122.083744437 58.0029296875 322.139648438 c 0
171.572265625 336.72265625 m 0
 172.520525005 172.051660989 239.178924635 62.5188348083 344.352539062 63.8310546875 c 4
 453.446804 65.2373293771 510.22415722 200.859916499 509.521484375 379.618164062 c 0
 508.928949963 527.668395468 436.702387634 622.86912042 339.448242188 621.96484375 c 0
 255.292171849 621.149927794 170.518216381 526.555938142 171.572265625 336.72265625 c 0
EndSplineSet
EndChar

StartChar: one
Encoding: 14 49 116
GlifName: one
Width: 422
VWidth: 79
Flags: HMW
LayerCount: 3
Fore
SplineSet
54 644 m 1
 154.528 642 298 695 298 695 c 1
 288 591.489361702 287 85.7659574468 278 0 c 1
 174 0 l 1
 189 196.138996139 190 447.196911197 183 508 c 0
 178 553 132 583 60 583 c 1
 54 644 l 1
65 61 m 1
 131 57 179 79 183 137 c 1
 284 151 l 1
 282 56 354 62 382 63 c 1
 392 0 l 1
 72 0 l 1
 65 61 l 1
EndSplineSet
EndChar

StartChar: two
Encoding: 15 50 117
GlifName: two
Width: 650
VWidth: 153
Flags: HMW
LayerCount: 3
Fore
SplineSet
63 62 m 5
 199.947357498 149.649037156 448.334030481 296.335168015 444 510 c 4
 442.481234764 581.457027804 399.24566176 636.598082678 312 634 c 0
 266.705509282 632.552484153 205.674804688 618.6484375 183 518 c 1
 116 509 l 1
 110 576 113 636 113 636 c 1
 165.966796875 665 263.942382812 694 337 696 c 0
 467.306725399 699.434566096 577.822255483 649.357544605 579 531 c 4
 581.191702956 307.05859375 282.857734936 111.696289062 152 60 c 1
 184 95.2607421875 l 1
 440 98.0107421875 l 2
 518 98.0107421875 527 150 534 179.428710938 c 1
 606 188 l 1
 597 0 l 1
 78 0 l 1
 63 62 l 5
EndSplineSet
EndChar

StartChar: three
Encoding: 16 51 118
GlifName: three
Width: 594
VWidth: 153
Flags: HMW
LayerCount: 3
Fore
SplineSet
58 -100 m 5
 104.333094221 -112.755208333 191.500989026 -126.318271938 284 -116 c 0
 409.873004272 -102.082024415 545.270669292 -25.7403744247 540 143 c 0
 536.375976562 263.40625 426.83984375 352.393554688 274.573242188 330 c 1
 284.583984375 308 l 1
 414.359375 326.846679688 514.17578125 420.447265625 513 529 c 0
 512.0390625 617.694335938 447 688 285 683 c 0
 196.041977502 680.254382022 113 644 65 622 c 1
 65 622 62 553.732421875 68 491 c 1
 129 502 l 1
 141.727539062 570.797851562 187.629025685 623.380035761 267 626 c 0
 329.998875384 628.079536027 389 594.326171875 389 509 c 0
 389 426 322.620117188 358.325195312 187 340 c 1
 194 275 l 1
 318.0625 280.479492188 406.58203125 209.557617188 408 102 c 1
 407.112403101 24.6810068295 372.955426357 -42.4319639901 280 -54 c 0
 176.881339569 -67.4771701906 109.994328997 -9.42428957761 84 45 c 5
 66.1064453125 6.23873963648 54.4091796875 -65.2950946003 58 -100 c 5
EndSplineSet
EndChar

StartChar: four
Encoding: 17 52 119
GlifName: four
Width: 717
VWidth: 79
Flags: HMW
LayerCount: 3
Fore
SplineSet
400 -112 m 1
 412.12890625 68.9462890625 421.905273438 229.84765625 418 394 c 9
 418 394 472.127236054 430.795898438 535 450 c 1
 511.643554688 161.8046875 506.552734375 64.859375 517 -112 c 1
 400 -112 l 1
41 139 m 1
 160.438476562 294.509765625 270.741210938 517.298828125 306 653 c 5
 342.173378596 661.815429688 379.148073227 666.961914062 449 664 c 5
 414.678861405 546.94140625 240.988930325 244.427734375 101 149 c 1
 107 187.965820312 l 1
 235.759765625 185.998046875 584.572265625 191.107421875 680 198 c 9
 693 103 l 17
 71 100 l 1
 41 139 l 1
EndSplineSet
EndChar

StartChar: five
Encoding: 18 53 120
GlifName: five
Width: 594
VWidth: 153
Flags: HMW
LayerCount: 3
Fore
SplineSet
49 -112 m 1
 39.4091796875 -73.81640625 47.1064453125 -14.2958984375 75 35 c 1
 101.126953125 -15.0263671875 166.403998699 -70.7919161614 270 -58 c 0
 362.758319418 -47.4732293226 403.084983302 27.7005461733 404 99 c 0
 405.717704088 249.79427173 304.559936909 343.29425905 84 330 c 5
 96.01171875 448.706054688 104.916992188 539.622070312 112 670 c 5
 223.895289157 663.987799865 380.93359375 669.82421875 477.461914062 676 c 1
 473 556 l 1
 345.174804688 563.736328125 314.357421875 564 174 564 c 1
 166.451171875 401.630859375 l 1
 363.549804688 402.005859375 527.254882812 322.752929688 533 147 c 0
 538.526958126 -22.0790720318 394.369140625 -103.45703125 279 -122 c 0
 196.272685075 -135.296536726 76.0654296875 -126.888671875 49 -112 c 1
EndSplineSet
EndChar

StartChar: six
Encoding: 19 54 121
GlifName: six
Width: 658
VWidth: 153
Flags: HMW
LayerCount: 3
Fore
SplineSet
74.05078125 283 m 0
 66.095703125 586.403320312 240.883789062 743.340820312 426 787.263671875 c 0
 459.522460938 795.217773438 497.977539062 800.2578125 531.708984375 795.671875 c 1
 540 741 l 17
 284.46484375 743.53515625 177.043333472 492.340656466 192.689453125 277.728515625 c 0
 203.114023512 134.738469679 259.487304688 45.5869140625 350.592773438 46.1484375 c 0
 439.186523438 46.611328125 486.3359375 128.610351562 489.129882812 241.5546875 c 0
 492.34765625 371.654296875 422.583007812 421.510742188 353.522460938 424.196289062 c 0
 236.6875 428.739257812 175.09765625 346.076171875 163 335 c 1
 165.350585938 335.498046875 139.87109375 371.251953125 142 372 c 1
 224.063476562 486.946289062 317.6953125 508.44921875 382.149414062 507.91015625 c 0
 481.986535498 507.075167522 612.190429688 434.206054688 607.555664062 252.581054688 c 0
 603.4296875 115.400390625 506.555664062 -16.080078125 326.201171875 -13.9892578125 c 0
 134.858398438 -11.2333984375 77.0078125 168.609375 74.05078125 283 c 0
EndSplineSet
EndChar

StartChar: seven
Encoding: 20 55 122
GlifName: seven
Width: 662
VWidth: 0
Flags: HMW
LayerCount: 3
Fore
SplineSet
72 465 m 1
 80 665 l 1
 265.745117188 659.282226562 478.43359375 666.469726562 573 672 c 1
 619 618 l 5
 475.087890625 456.462890625 300.962890625 126.818359375 241 -128 c 5
 191.982421875 -127.92578125 144.193359375 -108.295898438 130 -75 c 5
 175.22265625 86.9560546875 363.444335938 451.646484375 539.6015625 601 c 1
 542 573 l 1
 253.124023438 573 l 1
 170.416015625 568.975585938 134.612304688 512.17578125 119 470 c 1
 72 465 l 1
EndSplineSet
EndChar

StartChar: eight
Encoding: 21 56 123
GlifName: eight
Width: 626
VWidth: 153
Flags: HMW
LayerCount: 3
Fore
SplineSet
48 174 m 0
 48 74 114.421875 -26.43359375 308 -24.9892578125 c 0
 442.01953125 -23.9580078125 560.465820312 53.3896484375 565 184 c 0
 574.352539062 446.525390625 198.338867188 411.416992188 185 597 c 0
 178.835922721 682.760506178 241.064453125 731.942382812 309 731 c 4
 389.118164062 729.922851562 434.44140625 671.887695312 435 596 c 0
 435.471679688 524.233398438 380.927734375 443.09765625 320 420 c 1
 348 390 l 1
 420.078125 396.875976562 536.644961191 464.514760679 539 597 c 4
 541.08984375 714.56640625 439.662109375 791.943359375 313 790.713867188 c 0
 186.431640625 789.434570312 70.0693359375 708.654296875 77 568 c 0
 88.677734375 331.010742188 433.971679688 382.666015625 437 192 c 0
 438.244140625 113.67578125 404.384749828 39.7887206706 309 38.1484375 c 4
 211.096679688 36.46484375 167.299804688 111.211914062 167 183 c 0
 166.7265625 248.495117188 200.333007812 315.018554688 288 350 c 0
 292.915039062 351.9609375 276.701171875 391.338867188 282 392 c 1
 133.231445312 383.083007812 48 280.234375 48 174 c 0
EndSplineSet
EndChar

StartChar: nine
Encoding: 22 57 124
GlifName: nine
Width: 633
VWidth: 153
Flags: HMW
LayerCount: 3
Fore
SplineSet
54.4443359375 419.418945312 m 0
 58.5703125 556.599609375 155.444335938 688.080078125 335.798828125 685.989257812 c 0
 527.141601562 683.233398438 584.9921875 503.390625 587.94921875 389 c 0
 595.904296875 85.5966796875 421.116210938 -71.3408203125 236 -115.263671875 c 0
 202.477539062 -123.217773438 164.022460938 -128.2578125 130.291015625 -123.671875 c 1
 122 -64 l 21
 379.870864358 -66.5574802973 478.825470797 181.463705942 463.310546875 394.271484375 c 0
 452.885742188 537.26171875 402.512695312 626.413085938 311.407226562 625.8515625 c 0
 222.813476562 625.388671875 175.6640625 543.389648438 172.870117188 430.4453125 c 0
 169.65234375 300.345703125 239.416992188 250.489257812 308.477539062 247.803710938 c 0
 425.3125 243.260742188 486.90234375 325.923828125 499 337 c 1
 496.649414062 336.501953125 522.12890625 300.748046875 520 300 c 1
 437.936523438 185.053710938 344.3046875 163.55078125 279.850585938 164.08984375 c 0
 180.013671875 164.924804688 49.8095703125 237.793945312 54.4443359375 419.418945312 c 0
EndSplineSet
EndChar

StartChar: plus
Encoding: 8 43 127
GlifName: plus
Width: 618
VWidth: 153
Flags: HMW
LayerCount: 3
Fore
SplineSet
272 141 m 1
 272 632 l 1
 354 618 l 1
 344 425 344 303 354 131 c 1
 327 133 306 139 272 141 c 1
47 343 m 5
 61 432 l 5
 254 422 396 422 568 432 c 5
 566 405 560 377 558 343 c 5
 47 343 l 5
EndSplineSet
EndChar

StartChar: slash
Encoding: 12 47 128
GlifName: slash
Width: 533
VWidth: 0
Flags: HMW
LayerCount: 3
Fore
SplineSet
4 -80 m 17
 426 842 l 9
 528 846 l 17
 499.073242188 787.296875 443.291015625 669.911132812 392.92578125 560 c 2
 105 -80 l 9
 4 -80 l 17
EndSplineSet
EndChar

StartChar: equal
Encoding: 25 61 129
GlifName: equal
Width: 580
VWidth: 153
Flags: HMW
LayerCount: 3
Fore
SplineSet
35 228 m 5
 49 328 l 5
 242 318 374 318 546 328 c 1
 544 301 538 262 536 228 c 1
 35 228 l 5
39 403 m 1
 53 494 l 1
 246 484 378 484 550 494 c 1
 548 467 542 437 540 403 c 1
 39 403 l 1
EndSplineSet
EndChar

StartChar: braceleft
Encoding: 81 123 130
GlifName: braceleft
Width: 437
VWidth: 153
Flags: HMW
LayerCount: 3
Fore
SplineSet
75 357 m 5
 75 409.110351562 l 5
 112.748046875 407.37890625 215.795898438 414.577148438 249 406.65625 c 1
 249 381.09375 l 1
 299.928710938 359.192382812 340.061523438 321.284179688 339.958007812 256 c 0
 339.833984375 177.22265625 304.471679688 140.698242188 301.833007812 81 c 0
 299.447265625 27.01953125 313.498046875 -20.5888671875 380 -50 c 1
 357 -99 l 1
 292.8671875 -89.951171875 196.255859375 -31.359375 193.28125 62 c 4
 188.97265625 197.212890625 308.169921875 351.99609375 75 357 c 5
75 366.889648438 m 5
 75 419 l 5
 308.169921875 424.00390625 183.97265625 574.787109375 188.28125 710 c 4
 191.255859375 803.359375 289.8671875 863.951171875 343 880 c 1
 374 842 l 1
 307.498046875 812.588867188 297.064453125 771.01953125 295.833007812 717 c 0
 294.471679688 657.301757812 333.833984375 598.77734375 333.958007812 520 c 0
 334.147460938 400.05859375 197.779296875 372.520507812 75 366.889648438 c 5
EndSplineSet
EndChar

StartChar: bar
Encoding: 82 124 131
GlifName: bar
Width: 195
VWidth: 153
Flags: HMW
LayerCount: 3
Fore
SplineSet
60 -114 m 1
 60 840 l 1
 124 840 l 1
 124 -114 l 1
 60 -114 l 1
EndSplineSet
EndChar

StartChar: macron
Encoding: 88 175 134
GlifName: macron
Width: 0
VWidth: 0
Flags: HMW
AnchorPoint: "top" 1 612 mark 0
LayerCount: 3
Fore
SplineSet
-187 806 m 13
 -177 732 l 21
 191 732 l 13
 181 806 l 21
 -187 806 l 13
EndSplineSet
EndChar

StartChar: cedilla
Encoding: 90 184 135
GlifName: cedilla
Width: 0
VWidth: 79
Flags: HMW
AnchorPoint: "bottom" -18 0 mark 0
AnchorPoint: "top" -18 0 mark 0
LayerCount: 3
Fore
SplineSet
-126 -283 m 9
 -101 -234 l 17
 -69 -249 -34.2333984375 -253.73828125 -1 -253 c 0
 44 -252 89 -223 89 -184 c 0
 89 -132 -3 -136 -60 -143 c 9
 -50 0 l 17
 -29 -0.547063393141 -8 0.137064852119 13 1 c 9
 26 -93 l 17
 29.2880859375 -91.8564453125 -5.375 -85.8037109375 -2 -84.8447265625 c 0
 14.953125 -79.25390625 45.8112827728 -69.4402015081 83 -69.6982421875 c 0
 156.22003526 -70.2062927215 202.914891831 -103.905285158 203 -159 c 0
 203.142578125 -251.297851562 121.240234375 -309.59765625 0 -311 c 0
 -61.6982421875 -311.713867188 -104 -293 -126 -283 c 9
EndSplineSet
EndChar

StartChar: ae
Encoding: 128 230 153
GlifName: ae
Width: 1046
VWidth: 0
Flags: HMW
LayerCount: 3
Fore
SplineSet
95 125 m 0
 95 226 165 296 320 331 c 0
 412 352 486 356 486 356 c 1
 486 273 l 1
 486 273 422 299 345 288 c 0
 268 277 223 218 221 160 c 0
 219 96 256.875976562 62.376953125 314 61 c 0
 397 59 454 118 460 159 c 1
 488 119 l 1
 488 119 438 -13 258 -13 c 0
 167 -13 95 32 95 125 c 0
135 539 m 1
 184 566 300 611 389 611 c 0
 535 611 569 505 572 443 c 0
 575.771484375 365.065429688 557 184 574 113 c 1
 463 109 l 1
 453 109 l 1
 465 198 469 406 455 464 c 0
 434 553 374 564 329 556 c 0
 271 545 245 507 214 474 c 1
 270 557 l 1
 249 512 232 469 226 401 c 1
 138 392 l 1
 132 459 135 539 135 539 c 1
EndSplineSet
Refer: 5 101 N 1 0 0 1 422 0 2
EndChar

StartChar: dotlessi
Encoding: 184 305 164
GlifName: dotlessi
Width: 409
VWidth: 79
Flags: HMW
AnchorPoint: "top" 215 612 basechar 0
LayerCount: 3
Fore
SplineSet
47 61 m 1
 120.931021828 56.7309642871 156.689057739 87.8889763077 163 144 c 0
 170.5 215.720116618 173 309.434402332 168 472 c 0
 166.858554113 522.861642038 133 526 55 526 c 1
 48 589 l 1
 131 587 296 610 296 610 c 1
 269.912917562 400.299442246 271.037789459 217.461618369 271 153 c 0
 270.951194035 58.2790279717 332.762812941 50.3756973782 364 51 c 1
 374 0 l 1
 57 0 l 1
 47 61 l 1
EndSplineSet
EndChar

StartChar: oe
Encoding: 206 339 168
GlifName: oe
Width: 1075
VWidth: 0
Flags: HMW
LayerCount: 3
Fore
SplineSet
44 246 m 0
 42 466 179 616 362 615 c 0
 516 614 622 531 616 324 c 0
 611 148 522 -21.982421875 299 -18 c 0
 131 -15 45 90 44 246 c 0
171 318 m 0
 166 156 230 31 344 44 c 0
 441 55 494 168 498 298 c 0
 503 455 424 566 313 556 c 0
 267 552 176 505 171 318 c 0
513 230 m 0
 499.409179688 479.856445312 647.481445312 608.546875 797 610.306640625 c 0
 949.122070312 612.096679688 1057.015625 504.470703125 1025 298 c 1
 623 296 l 1
 593 344 l 1
 850 367 l 1
 910 368 l 1
 900.612304688 506.48828125 839.946289062 561.018554688 777 559.377929688 c 0
 680.904296875 556.874023438 632.025390625 460.888671875 635 329 c 0
 637 228 658 78 796 53 c 0
 899 34 989 102 991 102 c 1
 1015 68 l 1
 996 51 921 -19 794 -21 c 0
 667 -23 524 26 513 230 c 0
EndSplineSet
EndChar

StartChar: circumflex
Encoding: 243 710 174
GlifName: circumflex
Width: 0
VWidth: 0
Flags: HMW
AnchorPoint: "top" 0 612 mark 0
LayerCount: 3
Fore
SplineSet
-185.151367188 724 m 5
 -105.079101562 767.331054688 -51.3603515625 811.86328125 -25.9384765625 855.736328125 c 5
 27.11328125 856.296875 l 5
 52.228515625 810.924804688 109.282226562 755.928710938 180.251953125 724 c 5
 151.532226562 669 l 5
 102.493164062 678.287109375 28.869140625 728.86328125 -0.603515625 762.340820312 c 5
 -31.330078125 728.83984375 -109.166015625 685.009765625 -153.3046875 669 c 5
 -185.151367188 724 l 5
EndSplineSet
EndChar

StartChar: breve
Encoding: 246 728 176
GlifName: breve
Width: 0
VWidth: 0
Flags: HMW
AnchorPoint: "top" 0 612 mark 0
LayerCount: 3
Fore
SplineSet
-181.458984375 780.681640625 m 1
 -152.739257812 831.681640625 l 5
 -123.700195312 792.39453125 -68 762 -0.603515625 762.340820312 c 24
 67 762 127.958984375 806.671875 152.09765625 842.681640625 c 1
 183.944335938 787.681640625 l 1
 164.181640625 724.518554688 86.796875 668.958007812 2 668.641601562 c 0
 -86.2119140625 668.3125 -162.94921875 709.859375 -181.458984375 780.681640625 c 1
EndSplineSet
EndChar

StartChar: ring
Encoding: 248 730 177
GlifName: ring
Width: 0
VWidth: 0
Flags: HMW
AnchorPoint: "top" 0 823 mark 0
LayerCount: 3
Fore
SplineSet
-44.7451171875 956.504882812 m 4
 -44.7451171875 932.955078125 -25.1201171875 913.330078125 -1.5703125 913.330078125 c 4
 21.98046875 913.330078125 41.60546875 932.955078125 41.60546875 956.504882812 c 4
 41.60546875 980.0546875 21.98046875 999.6796875 -1.5703125 999.6796875 c 4
 -25.1201171875 999.6796875 -44.7451171875 980.0546875 -44.7451171875 956.504882812 c 4
-103 956 m 0
 -103 1013 -57 1059 0 1059 c 0
 57 1059 103 1013 103 956 c 0
 103 899 57 853 0 853 c 0
 -57 853 -103 899 -103 956 c 0
EndSplineSet
EndChar

StartChar: ogonek
Encoding: 249 731 178
GlifName: ogonek
Width: 0
VWidth: 0
Flags: HMW
AnchorPoint: "bottom" 0 0 mark 0
LayerCount: 3
Fore
SplineSet
-226 -167.932617188 m 0
 -224.327148438 -46.408203125 -76.00390625 20.189453125 -31 22.0673828125 c 1
 -10 25.291015625 -19 23.66015625 2 24.0673828125 c 1
 12 2.0673828125 l 17
 -45 -20.9326171875 -127 -67.9326171875 -127 -149.932617188 c 0
 -127 -194.932617188 -99.0009765625 -222.989257812 -44 -223.932617188 c 0
 -8.763671875 -224.537109375 16 -215.932617188 38 -202.932617188 c 9
 56 -244.932617188 l 17
 34 -258.932617188 -9.302734375 -282.709960938 -71 -281.932617188 c 0
 -182.240234375 -280.530273438 -226.857421875 -230.2265625 -226 -167.932617188 c 0
EndSplineSet
EndChar

StartChar: tilde
Encoding: 250 732 179
GlifName: tilde
Width: 0
VWidth: 0
Flags: HMW
AnchorPoint: "top" 0 612 mark 0
LayerCount: 3
Fore
SplineSet
-206.458984375 771.681640625 m 1
 -169.739257812 826.681640625 l 1
 -140.700195312 807.39453125 -104.998046875 794.979492188 -57.603515625 794.340820312 c 0
 -0.6015625 793.573242188 31.7001953125 819.548828125 86.9443359375 820.040039062 c 4
 150.154296875 820.602539062 191.893554688 796.822265625 223.403320312 767 c 1
 186.68359375 712 l 1
 157.64453125 731.287109375 126.939453125 739.1171875 87.5478515625 738.340820312 c 0
 40.5498046875 737.4140625 4.2451171875 716.1015625 -61 715.641601562 c 0
 -129.211914062 715.161132812 -188.94921875 749.859375 -206.458984375 771.681640625 c 1
EndSplineSet
EndChar

StartChar: endash
Encoding: 252 8211 180
GlifName: endash
Width: 500
VWidth: 0
Flags: HMW
LayerCount: 3
Fore
SplineSet
39 328 m 1
 39 433 l 1
 460 433 l 1
 460 328 l 1
 39 328 l 1
EndSplineSet
EndChar

StartChar: quoteleft
Encoding: 254 8216 181
GlifName: quoteleft
Width: 210
VWidth: 79
Flags: HMW
LayerCount: 3
Fore
SplineSet
33 573 m 1
 65 535 133 542 153 553 c 1
 142.122070312 646.560546875 154.869140625 713.220703125 175.125976562 778 c 1
 134 806 l 1
 73 757 29 658 33 573 c 1
EndSplineSet
EndChar

StartChar: uniFB01
Encoding: 263 64257 184
GlifName: uniF_B_01
Width: 840
VWidth: 0
Flags: HMW
LayerCount: 3
Fore
SplineSet
38 588 m 1
 179.5078125 583.043945312 287.553710938 582.5 419 588 c 1
 432 522 l 1
 219 503.526367188 l 1
 162 439.640625 l 1
 160.805664062 506.45703125 96.041015625 521.84765625 48 522 c 1
 38 588 l 1
36 61 m 1
 98.189453125 60.2001953125 129.149414062 75.591796875 131.185546875 127.553710938 c 0
 137 276 133.673828125 372.4765625 130.30078125 520 c 0
 129.958007812 534.991210938 132.607421875 550.30859375 132.25390625 566 c 0
 131.837890625 584.458007812 131.85546875 603.4609375 133 623 c 0
 146.348632812 850.875976562 301.700195312 908.90234375 420 908 c 0
 471.810882568 907.661754261 522 893 522 893 c 1
 522.15234375 837.548828125 500.223632812 765.377929688 479 725 c 1
 444.725508996 784.4461875 401.926408617 850.66446875 340 843 c 0
 295.293945312 838.0625 261.89453125 782.879882812 250 671 c 0
 231.430664062 496.3359375 221.967773438 339.912109375 242.520507812 147.334960938 c 0
 250.193359375 75.4423828125 293.036132812 53.14453125 357 52 c 1
 367 0 l 1
 44 0 l 1
 36 61 l 1
EndSplineSet
Refer: 6 105 N 1 0 0 1 418 0 2
EndChar

StartChar: uniFB02
Encoding: 264 64258 185
GlifName: uniF_B_02
Width: 840
VWidth: 0
Flags: HMW
LayerCount: 3
Fore
SplineSet
456 60.1748046875 m 1
 460.2890625 59.94921875 464.442382812 59.837890625 468.4609375 59.837890625 c 0
 533.390625 59.837890625 565.05859375 87.640625 571 135.174804688 c 0
 577.1953125 218.810546875 579.936523438 349.654296875 579.936523438 482.291992188 c 0
 579.936523438 530.598077369 578.90234375 579.304913164 577 622.174804688 c 4
 573.238938053 712.983315326 550.672566372 704.697192747 492 719.174804688 c 1
 524 812.174804688 l 1
 585.505304152 810.143554688 704.764085339 833.174804688 705 833.174804688 c 1
 685.733398438 672.89580364 679.533203125 320.960355291 679.533203125 170.258789062 c 0
 679.533203125 74.7470703125 710.33203125 50.01953125 767.255859375 50.01953125 c 0
 769.532226562 50.01953125 771.474609375 50.08984375 773 50.1748046875 c 1
 783 -0.8251953125 l 1
 675.666992188 -0.8251953125 573.333007812 -0.8251953125 466 -0.8251953125 c 1
 456 60.1748046875 l 1
EndSplineSet
Refer: 26 102 N 1 0 0 1 0 0 2
EndChar

StartChar: A.sc
Encoding: 271 -1 186
GlifName: A_.sc
Width: 751
VWidth: 79
Flags: HMW
LayerCount: 3
Fore
SplineSet
20.775390625 51.775390625 m 1
 81.125 52.625 102.375 73.025390625 118.525390625 115.525390625 c 0
 197.575195312 320.375 256.224609375 504.825195312 302.974609375 662.075195312 c 1
 336.125 667.174804688 401.924804688 677.375 435.075195312 688.424804688 c 1
 486.924804688 509.924804688 545.575195312 355.224609375 630.575195312 127.424804688 c 0
 645.025390625 88.3251953125 662.875 44.974609375 720.674804688 46.6748046875 c 1
 729.174804688 -0.0751953125 l 1
 633.974609375 -0.0751953125 531.275390625 -0.0751953125 436.075195312 -0.0751953125 c 1
 427.575195312 45.8251953125 l 1
 487.924804688 44.974609375 522.775390625 55.1748046875 509.174804688 105.325195312 c 0
 480.275390625 211.575195312 417.375 345.875 380.825195312 469.125 c 0
 374.025390625 502.275390625 361.275390625 549.025390625 354.474609375 583.875 c 1
 303.474609375 407.075195312 225.275390625 178.424804688 212.525390625 123.174804688 c 0
 194.674804688 41.5751953125 253.325195312 42.4248046875 294.125 43.275390625 c 1
 302.625 -0.0751953125 l 1
 210.825195312 -0.0751953125 121.075195312 -0.0751953125 29.275390625 -0.0751953125 c 1
 20.775390625 51.775390625 l 1
230.375 222 m 1
 230.375 290 l 1
 504.924804688 290 l 1
 504.924804688 222 l 1
 230.375 222 l 1
EndSplineSet
EndChar

StartChar: B.sc
Encoding: 272 -1 187
GlifName: B_.sc
Width: 662
VWidth: 79
Flags: HMW
LayerCount: 3
Fore
SplineSet
48.826171875 678.525390625 m 1
 208.625976562 668.325195312 254.975585938 682.775390625 382.475585938 682.775390625 c 0
 497.225585938 682.775390625 580.076171875 626.525390625 580.92578125 521.525390625 c 4
 581.572265625 441.623046875 522.67578125 354.674804688 434.725585938 350.424804688 c 5
 461.92578125 371.674804688 l 5
 563.92578125 358.075195312 628.693359375 274.7734375 627.67578125 187.224609375 c 0
 625.975585938 41.025390625 485.725585938 0.224609375 348.875976562 0.224609375 c 0
 291.069335938 0.224609375 125.326171875 0.224609375 62.42578125 0.224609375 c 1
 53.92578125 52.0751953125 l 1
 121.076171875 43.5751953125 147.42578125 65.6748046875 149.125976562 108.174804688 c 0
 156.776367188 290.924804688 159.326171875 398.025390625 152.526367188 534.025390625 c 0
 149.975585938 583.325195312 135.526367188 630.924804688 57.326171875 624.974609375 c 1
 48.826171875 678.525390625 l 1
258.776367188 318.974609375 m 1
 257.92578125 233.974609375 257.92578125 167.674804688 266.42578125 104.775390625 c 0
 272.375976562 55.474609375 319.125976562 55.0751953125 364.17578125 55.0751953125 c 0
 460.225585938 55.9248046875 513.975585938 101.375 513.975585938 186.375 c 0
 513.975585938 260.325195312 463.625976562 325.775390625 374.375976562 328.325195312 c 0
 337.826171875 329.174804688 288.526367188 324.924804688 258.776367188 318.974609375 c 1
260.475585938 382.724609375 m 1
 427.076171875 362.325195312 464.67578125 450.724609375 466.375976562 499.174804688 c 0
 468.92578125 575.674804688 430.92578125 628.474609375 354.625976562 630.174804688 c 0
 315.526822182 631.046054611 285.125976562 628.375 265.576171875 620.724609375 c 1
 258.776367188 555.275390625 261.326171875 466.025390625 260.475585938 382.724609375 c 1
EndSplineSet
EndChar

StartChar: C.sc
Encoding: 273 -1 188
GlifName: C_.sc
Width: 646
VWidth: 79
Flags: HMW
LayerCount: 3
Fore
SplineSet
32.5751953125 247.200195312 m 4
 19.81640625 450.1484375 125.807617188 655.1328125 406.375 677.799804688 c 0
 520.133789062 686.990234375 587.174804688 658.25 587.174804688 658.25 c 1
 589.724609375 614.900390625 586.325195312 504.400390625 577.825195312 468.700195312 c 1
 517.674804688 471.25 l 1
 490.474609375 546.049804688 430.125 631.900390625 391.024414062 637.849609375 c 1
 402.924804688 655.700195312 547.424804688 629.349609375 502.375 548.599609375 c 1
 488.853780159 551.532415213 454.653692641 605.049804688 356.825195312 605.049804688 c 0
 222.524414062 605.049804688 150.861328125 466.236328125 153.924804688 299.799804688 c 0
 156.642578125 149.3984375 254.126953125 65.4892578125 375.375 67 c 0
 459.521484375 68.048828125 517.274414062 100.46597753 560.625 139.75 c 1
 594.625 103.200195312 l 1
 534.274414062 28.400390625 459.924804688 -15.7998046875 339.224609375 -15.7998046875 c 0
 189.73828125 -15.7998046875 43.3603515625 71.3955078125 32.5751953125 247.200195312 c 4
EndSplineSet
EndChar

StartChar: D.sc
Encoding: 274 -1 189
GlifName: D_.sc
Width: 700
VWidth: 79
Flags: HMW
LayerCount: 3
Fore
SplineSet
25.1767578125 678.491210938 m 1
 200.907226562 668.291992188 328.452148438 682.741210938 410.826171875 682.741210938 c 0
 548.359375 682.741210938 673.614257812 607.94140625 671.9765625 397.141601562 c 0
 668.666015625 124.291992188 539.952148438 3.591796875 310.7265625 0.19140625 c 0
 246.29296875 -0.658203125 108.896484375 0.19140625 38.7763671875 0.19140625 c 1
 30.2763671875 52.0419921875 l 1
 88.9267578125 48.6416015625 123.776367188 71.591796875 125.4765625 114.091796875 c 0
 133.125976562 296.841796875 135.676757812 397.991210938 128.875976562 533.991210938 c 0
 126.326171875 583.291992188 111.875976562 630.891601562 33.6767578125 624.94140625 c 1
 25.1767578125 678.491210938 l 1
252.926757812 611.341796875 m 1
 239.326171875 410.741210938 240.875 287.326171875 253.776367188 120.891601562 c 0
 257.875 68.025390625 297.9765625 63.091796875 343.026367188 63.94140625 c 0
 485.872070312 65.6416015625 543.938476562 166.791992188 548.426757812 316.391601562 c 0
 554.364257812 506.791992188 473.46484375 624.091796875 348.776367188 627.491210938 c 0
 302.875976562 628.341796875 275.875976562 619.841796875 252.926757812 611.341796875 c 1
EndSplineSet
EndChar

StartChar: E.sc
Encoding: 275 -1 190
GlifName: E_.sc
Width: 613
VWidth: 79
Flags: HMW
LayerCount: 3
Fore
SplineSet
38.8251953125 49.375 m 5
 104.275390625 56.1748046875 110.619140625 89.587890625 113.825195312 130.974609375 c 4
 123.174804688 251.674804688 130.354492188 415.088867188 122.325195312 563.625 c 4
 120.1015625 604.75 112.875 631.625 48.275390625 628.224609375 c 5
 43.1748046875 680.075195312 l 5
 107.775390625 674.974609375 239.875 675.825195312 310.424804688 675.825195312 c 4
 383.525390625 675.825195312 464.174804688 676.674804688 546.625 680.924804688 c 5
 546.625 680.924804688 549.174804688 632.474609375 549.174804688 612.075195312 c 28
 549.174804688 561.924804688 541.525390625 499.875 541.525390625 499.875 c 5
 470.325195312 506.674804688 l 5
 464.375 556.825195312 443.125 622.275390625 406.575195312 655.424804688 c 5
 487.325195312 610.775390625 l 5
 418.474609375 617.575195312 380.125 620.125 295.974609375 620.125 c 4
 253.474609375 620.125 243.275390625 594.625 240.724609375 569.125 c 4
 223.498046875 396.859375 228.336914062 219.795898438 232.224609375 114.825195312 c 4
 233.075195312 91.875 237.325195312 65.525390625 267.924804688 62.125 c 4
 344.3359375 53.634765625 430.474609375 66.375 473.825195312 77.4248046875 c 5
 407.525390625 24.724609375 l 5
 444.075195312 66.375 463.625 106.325195312 476.375 173.474609375 c 5
 547.575195312 180.275390625 l 5
 547.764648438 175.6484375 549.275390625 72.984375 544.174804688 0.0751953125 c 5
 381.825195312 0.0751953125 207.974609375 0.0751953125 45.625 0.0751953125 c 5
 38.8251953125 49.375 l 5
172.724609375 312.025390625 m 5
 172.724609375 386.625 l 5
 337.724609375 387.474609375 l 5
 460.125 401.924804688 l 5
 460.125 314.575195312 l 5
 353.875 320.525390625 278.974609375 313.724609375 172.724609375 312.025390625 c 5
EndSplineSet
EndChar

StartChar: F.sc
Encoding: 276 -1 191
GlifName: F_.sc
Width: 645
VWidth: 79
Flags: HMW
LayerCount: 3
Fore
SplineSet
46.275390625 51.9248046875 m 1
 116.825195312 48.525390625 135.525390625 75.724609375 142.325195312 116.525390625 c 1
 256.025390625 124.174804688 l 1
 254.325195312 43.4248046875 341.025390625 42.5751953125 355.474609375 43.4248046875 c 1
 363.974609375 0.0751953125 l 1
 54.775390625 0.0751953125 l 1
 46.275390625 51.9248046875 l 1
62.4248046875 680.075195312 m 1
 129.692382812 674.974609375 241.212890625 674.974609375 314.674804688 674.974609375 c 0
 387.775390625 674.974609375 497.424804688 676.674804688 605.375 680.924804688 c 1
 605.375 680.924804688 607.924804688 632.474609375 607.924804688 612.075195312 c 24
 607.924804688 561.924804688 600.275390625 499.875 600.275390625 499.875 c 1
 523.075195312 506.674804688 l 1
 517.125 556.825195312 495.875 622.275390625 459.325195312 655.424804688 c 1
 531.575195312 612.924804688 l 1
 329.125 618.875 l 2
 279.825195312 619.724609375 266.224609375 599.325195312 263.674804688 563.625 c 0
 250.075195312 376.625 252.625 171.775390625 256.025390625 123.325195312 c 0
 258.575195312 85.9248046875 273.025390625 41.724609375 340.174804688 41.724609375 c 1
 326.575195312 0.9248046875 l 1
 118.525390625 0.0751953125 l 1
 118.525390625 0.0751953125 134.674804688 61.275390625 141.474609375 115.674804688 c 0
 149.974609375 229.575195312 154.620117188 410.102539062 146.575195312 563.625 c 0
 144.419921875 604.752929688 132.125 631.625 67.525390625 628.224609375 c 1
 62.4248046875 680.075195312 l 1
185.474609375 313.724609375 m 1
 185.474609375 376.625 l 1
 389.474609375 377.474609375 l 1
 511.875 391.924804688 l 1
 511.875 307.775390625 l 1
 405.625 313.724609375 291.724609375 315.424804688 185.474609375 313.724609375 c 1
EndSplineSet
EndChar

StartChar: G.sc
Encoding: 277 -1 192
GlifName: G_.sc
Width: 747
VWidth: 79
Flags: HMW
LayerCount: 3
Fore
SplineSet
27.7236328125 280.825195312 m 0
 24.98828125 506.524414062 174.818565265 688.695467985 469.873046875 689.825195312 c 0
 564.734937001 690.188409824 639.873046875 668.575195312 639.873046875 668.575195312 c 1
 642.423828125 625.224609375 647.523437501 540.224609375 644.973632812 504.525390625 c 1
 588.873046875 507.075195312 l 1
 561.673828125 581.875 508.123046875 643.924804688 469.0234375 649.875 c 1
 480.923828125 667.724609375 635.623046874 651.575195312 590.573242188 570.825195312 c 1
 574.447178049 573.787387075 543.788085938 628.239257812 427.123046875 627.025390625 c 0
 294.09375 625.313476562 155.18359375 497.948242188 152.5234375 320.224609375 c 0
 150.325622962 173.389781929 247.46875 54.556640625 410.0234375 52.025390625 c 0
 500.001953125 50.611328125 534.276367188 69.6591796875 571.423828125 106.424804688 c 1
 627.5234375 60.724609375 l 1
 577.494140625 1.87890625 487.392578125 -24.8251953125 399.973632812 -24.8251953125 c 0
 182.428710938 -24.8251953125 29.8232421875 104.884765625 27.7236328125 280.825195312 c 0
443.923828125 329.625 m 1
 539.973632812 322.825195312 602.873046875 325.375 694.673828125 329.625 c 1
 703.173828125 278.625 l 1
 688.852539062 279.419921875 631.311523438 285.638671875 631.311523438 219.984375 c 0
 631.311523438 161.963867188 631.263671875 99.390625 627.5234375 60.724609375 c 1
 511.923828125 28.224609375 l 1
 533.133789062 83.8349609375 535.299804688 158.626953125 534.569335938 221.807617188 c 0
 531.78125 256.290039062 507.521484375 278.303710938 449.0234375 275.224609375 c 1
 443.923828125 329.625 l 1
EndSplineSet
EndChar

StartChar: H.sc
Encoding: 278 -1 193
GlifName: H_.sc
Width: 758
VWidth: 79
Flags: HMW
LayerCount: 3
Fore
SplineSet
38.349609375 51.849609375 m 5
 93.4501286356 48.4501953125 114.474636302 75.650390625 119.549804688 116.450195312 c 1
 229.700195312 124.099609375 l 1
 228 43.349609375 292.599609375 42.5 307.900390625 43.349609375 c 1
 316.400390625 0 l 1
 46 0 l 5
 38.349609375 51.849609375 l 5
39.650390625 680 m 1
 135.700195312 673.200195312 211.849609375 675.75 303.650390625 680 c 1
 312.150390625 636.650390625 l 1
 296.849609375 637.5 238.200195312 636.650390625 239.900390625 555.900390625 c 1
 123.799804688 563.549804688 l 1
 117.849609375 604.349609375 109.349609375 631.549804688 44.75 628.150390625 c 1
 39.650390625 680 l 1
95.75 0 m 1
 95.75 0 113.868164062 61.00390625 118.700195312 115.599609375 c 0
 130.868164062 253.104492188 128.900390625 495.549804688 120.400390625 652.799804688 c 1
 250.950195312 674.049804688 l 1
 229.700195312 504.049804688 226.299804688 176.799804688 229.700195312 123.25 c 0
 232.25 85.849609375 214.400390625 41.650390625 284.099609375 41.650390625 c 1
 270.5 0.849609375 l 1
 95.75 0 l 1
152.700195312 304.299804688 m 1
 152.700195312 375.75 l 1
 432.349609375 376.599609375 l 1
 618.75 382.549804688 l 1
 618.75 304.299804688 l 1
 152.700195312 304.299804688 l 1
427.25 49.2998046875 m 1
 491.849609375 45.900390625 521.599609375 78.2001953125 525 119 c 1
 638.299804688 118.150390625 l 1
 635.75 41.650390625 691.849609375 41.650390625 708 42.5 c 1
 716.5 0 l 1
 435.75 0 l 1
 427.25 49.2998046875 l 1
440 680 m 1
 521.599609375 674.049804688 646.799804688 676.599609375 711.400390625 680 c 1
 715.650390625 636.650390625 l 1
 700.349609375 637.5 649.349609375 636.650390625 645.950195312 555.900390625 c 1
 527.549804688 563.549804688 l 1
 521.599609375 604.349609375 511.400390625 631.549804688 446.799804688 628.150390625 c 1
 440 680 l 1
501.200195312 0 m 1
 501.200195312 0 519.318359375 61.00390625 524.150390625 115.599609375 c 0
 536.318359375 253.104492188 531.799804688 495.549804688 523.299804688 652.799804688 c 1
 657 674.049804688 l 1
 635.75 504.049804688 635.75 176.799804688 638.299804688 123.25 c 0
 640 85.849609375 623 41.650390625 692.700195312 41.650390625 c 1
 679.099609375 0.849609375 l 1
 501.200195312 0 l 1
EndSplineSet
EndChar

StartChar: I.sc
Encoding: 279 -1 194
GlifName: I_.sc
Width: 414
VWidth: 79
Flags: HMW
LayerCount: 3
Fore
SplineSet
40.2998046875 680 m 1
 144.087890625 672.8828125 259.734375 674.08203125 376.150390625 680.849609375 c 1
 376.150390625 680.849609375 380.400390625 641.75 382.950195312 625.599609375 c 1
 339.599609375 631.549804688 282.643554688 617.880859375 278.400390625 564.400390625 c 0
 269.489257812 452.090820312 263.950195312 304.299804688 270.75 121.549804688 c 0
 272.989257812 61.3623046875 325.150390625 50.150390625 369.349609375 53.5498046875 c 1
 378.700195312 0 l 1
 50.5 -0.849609375 l 1
 43.7001953125 53.5498046875 l 1
 105.75 49.2998046875 151.084960938 65.3720703125 154.200195312 119 c 0
 159.677734375 213.298828125 158.501953125 386.75 158.450195312 542.299804688 c 0
 158.43359375 592.823242188 122.75 630.700195312 47.9501953125 622.200195312 c 1
 45.400390625 635.799804688 42 672.349609375 40.2998046875 680 c 1
EndSplineSet
EndChar

StartChar: J.sc
Encoding: 280 -1 195
GlifName: J_.sc
Width: 422
VWidth: 79
Flags: HMW
LayerCount: 3
Fore
SplineSet
0 -145 m 5
 22.8349609375 -91.650390625 l 5
 175.069335938 -129.900390625 165.766601562 -6.25 169.149414062 80.4501953125 c 0
 173.377929688 183.299804688 161.756835938 398.541015625 159.845703125 554.099609375 c 0
 159 622.950195312 93.8779296875 624.650390625 68.505859375 624.650390625 c 1
 65.96875 638.25 64.2763671875 671.400390625 62.5849609375 679.049804688 c 1
 163.041992188 674.122070312 257.775390625 673.86328125 368.064453125 679.900390625 c 1
 368.064453125 679.900390625 372.29296875 640.799804688 374.830078125 624.650390625 c 1
 314.782226562 622.099609375 288.564453125 611.049804688 286.02734375 564.299804688 c 0
 276.723632812 351.799804688 277.569335938 230.900390625 282.643554688 42.2001953125 c 0
 286.02734375 -70.849609375 234.271484375 -173.049804688 93.0322265625 -173.900390625 c 4
 46.5166015625 -173.900390625 11.8408203125 -151.799804688 0 -145 c 5
EndSplineSet
EndChar

StartChar: K.sc
Encoding: 281 -1 196
GlifName: K_.sc
Width: 742
VWidth: 79
Flags: HMW
LayerCount: 3
Fore
SplineSet
46.2998046875 680.75 m 1
 150.087890625 675.333007812 252.734375 676.532226562 343.650390625 681.599609375 c 1
 343.650390625 681.599609375 347.900390625 645.049804688 350.450195312 628.900390625 c 1
 307.099609375 629.75 258.643554688 618.630859375 254.400390625 565.150390625 c 0
 245.489257812 452.840820312 239.950195312 305.049804688 246.75 122.299804688 c 0
 248.989257812 62.1123046875 291.799804688 45.7998046875 336 49.2001953125 c 1
 345.349609375 0.75 l 1
 59.0498046875 -0.099609375 l 1
 52.25 54.2998046875 l 1
 108.349609375 56 126.584960938 66.1220703125 129.700195312 119.75 c 0
 135.177734375 214.048828125 138.997070312 391.75 137.950195312 547.299804688 c 0
 137.58203125 602.072265625 119.400390625 628.900390625 53.099609375 627.200195312 c 1
 50.5498046875 640.799804688 48 673.099609375 46.2998046875 680.75 c 1
286.127929688 357.495117188 m 1
 318.693359375 386.24609375 425.10546875 498.823242188 495.700195312 588.950195312 c 0
 508.928710938 605.838867188 518.900390625 630.599609375 453.450195312 628.049804688 c 1
 445.799804688 679.900390625 l 1
 547.799804688 675.650390625 682.75 682.450195312 682.75 682.450195312 c 1
 690.400390625 632.299804688 l 1
 656.400390625 633.150390625 627.900390625 611.900390625 603.25 584.700195312 c 0
 558.640625 531.770507812 442.754882812 408.80859375 399.318359375 360.650390625 c 5
 468.950195312 272.94140625 615.708118264 51.9650706193 689.400390625 52.599609375 c 1
 699.599609375 0.75 l 1
 602.700195312 1.599609375 532.299804688 0.75 435.400390625 0.75 c 1
 423.5 49.2001953125 l 1
 454.099609375 48.349609375 497.7265625 42.939453125 459 97.849609375 c 0
 444.296813692 119.919921875 347.306888682 246.7265625 288.477539062 319.958984375 c 1
 286.127929688 357.495117188 l 1
EndSplineSet
EndChar

StartChar: L.sc
Encoding: 282 -1 197
GlifName: L_.sc
Width: 579
VWidth: 79
Flags: HMW
LayerCount: 3
Fore
SplineSet
18.1748046875 53.5498046875 m 1
 71.724609375 54.400390625 98.9248046875 69.7001953125 104.940429688 124.94921875 c 0
 116.858398438 234.41015625 117.081054688 416.354492188 109.125 563.549804688 c 0
 106.90234375 604.673828125 87.875 631.549804688 23.275390625 628.150390625 c 1
 18.1748046875 680 l 1
 119.166992188 672.528320312 242.912109375 675.647460938 320.224609375 679.150390625 c 1
 325.325195312 624.75 l 1
 265.727539062 624.75 238.538085938 622.180664062 234.375 572.049804688 c 0
 220.081054688 402.611387608 219.075195312 174.597155913 220.775390625 130.25 c 4
 222.04296875 101.0859375 225.751953125 72.6630859375 256.474609375 69.0498046875 c 4
 310.128081208 63.3740234375 411.207661167 70.84375 455.495117188 77.1240234375 c 5
 472.272460938 107.221824729 484.291015625 143.273457436 488.125 173.400390625 c 1
 551.025390625 180.200195312 l 1
 556.1328125 141.528320312 556.556640625 22.7792968751 551.875 0 c 1
 371.981450602 0 204.018549398 0 24.125 0 c 1
 18.1748046875 53.5498046875 l 1
EndSplineSet
EndChar

StartChar: M.sc
Encoding: 283 -1 198
GlifName: M_.sc
Width: 987
VWidth: 79
Flags: HMW
LayerCount: 3
Fore
SplineSet
5.875 58.275390625 m 1
 67.9248046875 45.525390625 116.375 66.775390625 120.625 137.325195312 c 0
 127.424804688 231.674804688 129.974609375 406.775390625 126.575195312 546.174804688 c 0
 125.724609375 623.525390625 61.125 627.775390625 18.625 619.275390625 c 1
 16.0751953125 632.875 12.6748046875 671.974609375 10.974609375 679.625 c 1
 102.377929688 671.974609375 157.7734375 671.125 263.025390625 674.525390625 c 1
 291.075195312 603.974609375 426.782226562 344.544921875 472.974609375 212.125 c 1
 482.1015625 161.794921875 487.555664062 88.025390625 494.625 55.724609375 c 1
 501.424804688 13.224609375 l 1
 442.775390625 -4.625 l 1
 410.474609375 75.275390625 224.325195312 490.924804688 183.525390625 552.125 c 1
 182.674804688 544.474609375 208.174804688 579.325195312 207.325195312 571.674804688 c 0
 198.825195312 416.974609375 202.224609375 155.174804688 207.325195312 117.775390625 c 0
 216.674804688 58.275390625 264.275390625 52.3251953125 308.474609375 58.275390625 c 1
 317.825195312 -0.375 l 1
 12.6748046875 -1.224609375 l 1
 5.875 58.275390625 l 1
437.674804688 42.125 m 1
 530.325195312 227.424804688 642.525390625 575.075195312 682.474609375 674.525390625 c 1
 787.291992188 671.125 856.25 671.974609375 947.275390625 679.625 c 1
 950.674804688 654.974609375 953.224609375 632.875 956.625 619.275390625 c 1
 897.125 627.775390625 848.674804688 623.525390625 847.825195312 546.174804688 c 0
 844.424804688 406.775390625 846.974609375 231.674804688 853.775390625 137.325195312 c 0
 858.025390625 66.775390625 892.875 45.525390625 954.924804688 58.275390625 c 1
 965.125 -1.224609375 l 1
 622.974609375 -0.375 l 1
 615.325195312 58.275390625 l 1
 659.525390625 52.3251953125 716.474609375 58.275390625 725.825195312 117.775390625 c 0
 730.924804688 157.724609375 734.325195312 439.924804688 724.125 594.625 c 1
 718.174804688 586.125 757.311523438 627.436523438 752.174804688 618.424804688 c 0
 668.6484375 471.88671875 599.947265625 224.875 502.275390625 13.224609375 c 1
 437.674804688 42.125 l 1
EndSplineSet
EndChar

StartChar: N.sc
Encoding: 284 -1 199
GlifName: N_.sc
Width: 778
VWidth: 79
Flags: HMW
LayerCount: 3
Fore
SplineSet
175.849609375 579.950195312 m 1049
15 678.799804688 m 1,8,9
 99.150390625 671.150390625 151 670.299804688 247.900390625 673.700195312 c 1,10,11
 300.580078125 598.96484375 451.349609375 388.944335938 553.81640625 251.5 c 1,0,0
 578.654296875 215.814453125 600.129882812 106.741210938 623.599609375 96.7998046875 c 1,12,13
 627.849609375 104.999023438 579.400390625 72.201171875 583.650390625 80.400390625 c 1,14,15
 598.950195312 149.25 597.768554688 430.638671875 589.599609375 536.849609375 c 0,16,17
 583.650390625 614.200195312 556.450195312 626.950195312 496.950195312 618.450195312 c 1,18,19
 494.400390625 632.049804688 491 671.150390625 489.299804688 678.799804688 c 1,20,21
 545.400390625 673.700195312 553.89453125 672 615.099609375 672 c 0,22,23
 649.950195312 672 700.950195312 672.849609375 752.799804688 679.650390625 c 1,24,25
 752.799804688 679.650390625 757.049804688 640.549804688 759.599609375 624.400390625 c 1,26,27
 716.25 630.349609375 684.469726562 610.829101562 680.549804688 564.049804688 c 0,28,29
 667.799804688 411.900390625 670.349609375 181.549804688 677.150390625 -1.2001953125 c 1,30,31
 653.349609375 -4.599609375 638.900390625 -5.4501953125 596.400390625 -14.7998046875 c 1,32,-1
 594.700195312 -15.650390625 l 1,33,34
 446.625976562 189.338867188 354.740234375 320.868164062 233.81640625 473.700195312 c 0,0,0
 230.533203125 478.228515625 179.151367188 575.411132812 175.849609375 579.950195312 c 1,0,0
 169.53515625 575.098632812 210.915039062 598.668945312 204.549804688 593.799804688 c 1,35,36
 194.349609375 439.099609375 196.596679688 156.736328125 202.849609375 116.950195312 c 0,37,38
 212.200195312 57.4501953125 259.799804688 51.5 304 57.4501953125 c 1,39,-1
 313.349609375 -1.2001953125 l 1,40,-1
 25.2001953125 -2.0498046875 l 1,41,-1
 18.400390625 57.4501953125 l 1,0,1
 80.4501953125 44.7001953125 111.069335938 66.0048828125 116.150390625 136.5 c 0,2,3
 122.950195312 230.849609375 124.0625 405.922851562 122.099609375 545.349609375 c 0,4,5
 121.25 605.700195312 82.150390625 618.450195312 22.650390625 618.450195312 c 1,6,7
 20.099609375 632.049804688 16.7001953125 671.150390625 15 678.799804688 c 1,8,9
EndSplineSet
EndChar

StartChar: O.sc
Encoding: 285 -1 200
GlifName: O_.sc
Width: 712
VWidth: 153
Flags: HMW
LayerCount: 3
Fore
SplineSet
30.8046875 258.50390625 m 0
 20.2868372207 508.599274657 174.963783401 673.875238449 379.015625 681.713867188 c 0
 533.600034279 687.65221003 666.505808967 591.642384936 667.424804688 367.82421875 c 0
 668.404257443 167.641751568 575.137183165 -19.0632052934 337.544921875 -23.7744140625 c 0
 152.968577469 -27.4257645774 38.5496633614 91.3966701109 30.8046875 258.50390625 c 0
162.538085938 327 m 0
 163.687981425 152.771638159 237.943561764 34.7099192315 376.901367188 43.341796875 c 0
 481.08434158 49.8135073684 535.298927957 161.221090519 534.544921875 343.911132812 c 0
 533.812617734 512.860277034 439.779194202 633.523312883 318.432617188 614.405273438 c 0
 248.629891545 603.259216644 161.243185964 532.963029124 162.538085938 327 c 0
EndSplineSet
EndChar

StartChar: P.sc
Encoding: 286 -1 201
GlifName: P_.sc
Width: 655
VWidth: 79
Flags: HMW
LayerCount: 3
Fore
SplineSet
46.9765625 680.56640625 m 5
 169.810553852 670.366210938 268.612079164 684.81640625 402.126953125 684.81640625 c 4
 548.096718 684.81640625 599.085336311 606.56640625 600.026367188 513.06640625 c 4
 601.869059257 371.168105257 479.754633859 285.866683172 348.577148438 269.966796875 c 4
 304.479725552 264.841663035 247.426757812 267.016601562 247.426757812 267.016601562 c 5
 246.577148439 186.948437515 249.9765625 147.903248832 255.077148438 104.666992188 c 4
 260.560546875 55.3125 291.626953125 51.966796875 336.676757812 51.966796875 c 5
 347.7265625 0.1162109375 l 5
 286.990279177 -0.7333984375 136.67222417 0.1162109375 70.5771484375 0.1162109375 c 5
 62.0771484375 51.966796875 l 5
 127.520080145 51.966796875 137.120331045 70.6669921873 138.776367188 113.166992188 c 4
 146.426757814 296.773165769 148.976562502 405.429253818 142.176757812 542.06640625 c 4
 139.626953125 591.366210938 124.327148438 630.466796875 51.2265625 633.016601562 c 5
 46.9765625 680.56640625 l 5
249.126953125 346.766601562 m 5
 273.561221668 337.215588965 310.342388346 331.222019943 347.626953125 333.06640625 c 4
 451.848434224 338.317464527 483.003451843 418.217872361 483.9765625 499.466796875 c 4
 485.065111461 584.893854802 425.660017694 634.704590637 357.776367188 636.216796875 c 4
 318.676757812 637.06640625 273.776367188 630.416992188 254.2265625 622.766601562 c 5
 247.426757812 554.326238967 249.9765625 433.872517593 249.126953125 346.766601562 c 5
EndSplineSet
EndChar

StartChar: Q.sc
Encoding: 287 -1 202
GlifName: Q_.sc
Width: 769
VWidth: 153
Flags: HMW
LayerCount: 3
Fore
SplineSet
45.8046875 264.50390625 m 0
 35.166015625 511.64453125 186.60546875 675.340820312 393.015625 682.713867188 c 0
 555.317382812 688.557617188 676.518554688 594.077148438 677.424804688 373.82421875 c 0
 678.407226562 175.686523438 584.857421875 -9.111328125 336.544921875 -13.7744140625 c 0
 152.56640625 -17.169921875 53.5244140625 99.7646484375 45.8046875 264.50390625 c 0
172.538085938 333 m 0
 173.682617188 161.228515625 247.591796875 29.97265625 385.901367188 48.341796875 c 0
 489.849609375 63.1923828125 545.303710938 169.65234375 544.544921875 349.911132812 c 0
 543.826171875 515.737304688 451.533203125 634.169921875 332.432617188 615.405273438 c 0
 260.838867188 604.453125 171.209960938 535.379882812 172.538085938 333 c 0
249.279296875 -7.3974609375 m 1
 309.62890625 0.2529296875 l 1
 357.228515625 -78.818359375 532.329101562 -114.831054688 628.37890625 -116.397460938 c 0
 732.928710938 -118.096679688 808.579101562 -89.197265625 808.579101562 -89.197265625 c 1
 822.149414062 -118.096679688 l 1
 813.678710938 -199.497070312 l 1
 760.12890625 -216.497070312 703.178710938 -228.596679688 607.12890625 -220.747070312 c 0
 400.389648438 -203.8515625 273.928710938 -66.8974609375 249.279296875 -7.3974609375 c 1
EndSplineSet
EndChar

StartChar: R.sc
Encoding: 288 -1 203
GlifName: R_.sc
Width: 748
VWidth: 79
Flags: HMW
LayerCount: 3
Fore
SplineSet
46.9765625 680.56640625 m 1
 169.810553852 670.366210938 268.612079164 684.81640625 402.126953125 684.81640625 c 0
 548.096718 684.81640625 599.085336311 606.56640625 600.026367188 513.06640625 c 0
 601.869059257 371.168105257 479.754882812 295.866210938 348.577148438 279.966796875 c 0
 304.479492188 274.841796875 247.426757812 279.016601562 247.426757812 279.016601562 c 1
 246.577148438 198.948242188 249.9765625 147.903248832 255.077148438 104.666992188 c 0
 260.560546875 55.3125 291.626953125 51.966796875 336.676757812 51.966796875 c 1
 347.7265625 0.1162109375 l 1
 286.990279177 -0.7333984375 136.67222417 0.1162109375 70.5771484375 0.1162109375 c 1
 62.0771484375 51.966796875 l 1
 127.520080145 51.966796875 137.120331045 70.6669921873 138.776367188 113.166992188 c 0
 146.426757814 296.773165769 148.976562502 405.429253818 142.176757812 542.06640625 c 0
 139.626953125 591.366210938 124.327148438 630.466796875 51.2265625 633.016601562 c 1
 46.9765625 680.56640625 l 1
249.126953125 344.766601562 m 1
 273.561523438 339.215820312 306.35546875 335.989257812 343.626953125 338.06640625 c 0
 437.848632812 343.317382812 483.003451843 418.217872361 483.9765625 499.466796875 c 0
 485.065111461 584.893854802 426.66015625 634.705078125 353.776367188 636.216796875 c 0
 314.675937955 637.027798234 273.776367188 630.416992188 254.2265625 622.766601562 c 1
 247.426757812 554.326238967 249.9765625 431.872070312 249.126953125 344.766601562 c 1
349.806640625 296.631835938 m 5
 443.607421875 337.955078125 l 5
 506.865234375 248.274414062 622.8046875 52.865234375 698.982421875 53.5146484375 c 5
 709.392578125 0.59765625 l 5
 611.278320312 1.46484375 536.196289062 0.59765625 438.08203125 0.59765625 c 5
 425.9375 50.044921875 l 5
 457.16796875 49.177734375 514.909179688 53.861328125 477.120117188 109.90234375 c 4
 462.935546875 131.448242188 402.724609375 226.165039062 349.806640625 296.631835938 c 5
EndSplineSet
EndChar

StartChar: S.sc
Encoding: 289 -1 204
GlifName: S_.sc
Width: 572
VWidth: 153
Flags: HMW
LayerCount: 3
Fore
SplineSet
40.9990234375 19.880859375 m 1
 36.7490234375 58.130859375 38.44921875 126.130859375 48.6494140625 191.581054688 c 1
 132.249023438 182.231445312 l 1
 135.649414062 131.231445312 147.548828125 82.78125 179.849609375 45.380859375 c 1
 129.69921875 57.28125 104.749023438 104.880859375 95.3994140625 151.630859375 c 1
 126.849609375 115.081054688 151.664334412 59.6241651621 236.048828125 49.380859375 c 0
 313.071038525 40.03125 360.604872863 80.6990100787 368.19921875 131.231445312 c 0
 390.298828125 278.28125 83.2781357697 292.677908778 53.849609375 470.380859375 c 0
 36.1131992054 577.481445312 116.441053988 689.952756059 294.69921875 686.981445312 c 0
 396.69921875 685.28125 461.298828125 662.331054688 461.298828125 662.331054688 c 1
 466.399414062 621.53125 463.849609375 544.180664062 457.899414062 506.78125 c 1
 375.69921875 516.130859375 l 1
 373.999023438 556.930664062 335.749023438 674.231445312 335.749023438 674.231445312 c 1
 395.249023438 533.981445312 l 1
 379.099609375 553.53125 361.845965185 635.03573215 264.94921875 636.231445312 c 0
 196.099609375 637.081054688 173.901913556 587.694018694 181.44921875 529.03125 c 0
 200.149414063 383.680664062 480.052149183 383.395546273 498.499023438 195.680664062 c 0
 509.797851562 80.7041015625 423.899410803 -14.118410508 233.499023438 -14.96875 c 0
 120.450195312 -15.4736328125 40.9990234375 19.880859375 40.9990234375 19.880859375 c 1
EndSplineSet
EndChar

StartChar: T.sc
Encoding: 290 -1 205
GlifName: T_.sc
Width: 641
VWidth: 79
Flags: HMW
LayerCount: 3
Fore
SplineSet
26.375 517.474609375 m 1
 30.625 557.424804688 36.5751953125 635.625 37.4248046875 684.075195312 c 1
 132.674804688 678.974609375 209.401367188 677.275390625 313.474609375 677.275390625 c 0
 374.11328125 677.275390625 528.78515625 678.125 618.424804688 684.924804688 c 1
 616.762695312 661.231445312 608.224609375 515.805664062 608.224609375 512.375 c 1
 537.025390625 519.174804688 l 1
 531.075195312 569.325195312 509.825195312 626.275390625 473.275390625 659.424804688 c 1
 545.525390625 600.775390625 l 1
 469.875 627.125 385.969726562 622.875 313.474609375 622.875 c 0
 236.120117188 622.875 143.474609375 618.625 112.025390625 619.474609375 c 1
 157.924804688 650.924804688 l 1
 125.625 620.325195312 118.825195312 557.424804688 106.924804688 526.825195312 c 1
 26.375 517.474609375 l 1
154.724609375 51.9248046875 m 1
 214.454101562 48.78125 243.43359375 83.837890625 247.483398438 124.534179688 c 0
 262.674804688 278.474609375 261.137695312 489.004882812 252.474609375 598.224609375 c 0
 249.489257812 635.543945312 229.525390625 638.174804688 204.025390625 638.174804688 c 1
 198.075195312 649.224609375 l 1
 257.801757812 647.525390625 391.474609375 667.075195312 391.474609375 667.075195312 c 1
 368.501953125 489.362304688 359.62890625 257.739257812 371.674804688 109.84375 c 0
 376.008789062 57.0126953125 422.3125 53.685546875 445.025390625 55.3251953125 c 1
 454.375 0.0751953125 l 1
 355.908203125 0.0751953125 257.44140625 0.0751953125 158.974609375 0.0751953125 c 1
 154.724609375 51.9248046875 l 1
EndSplineSet
EndChar

StartChar: U.sc
Encoding: 291 -1 206
GlifName: U_.sc
Width: 709
VWidth: 79
Flags: HMW
LayerCount: 3
Fore
SplineSet
9.875 679.025390625 m 1
 74.4365234375 673.924804688 92.044921875 671.375 162.474609375 672.224609375 c 0
 197.325195312 672.224609375 273.825195312 673.075195312 325.674804688 679.875 c 1
 325.674804688 679.875 329.924804688 640.775390625 332.474609375 624.625 c 1
 254.276367188 636.525390625 234.146484375 576.174804688 230.275390625 519.224609375 c 0
 222.625 410.424804688 220.924804688 252.325195312 224.325195312 215.775390625 c 0
 231.868211903 116.325195312 280.800478644 44.62109375 381.974609375 54.275390625 c 4
 462.655273438 61.1064453125 518.895507812 123.404296875 526.474609375 225.974609375 c 4
 534.125 329.498046875 526.852539062 437.088867188 529.875 543.875 c 5
 529.875 544.724609375 l 6
 529.025390625 622.075195312 481.424804688 626.325195312 421.924804688 617.825195312 c 5
 419.375 631.424804688 415.974609375 670.525390625 414.275390625 678.174804688 c 5
 473.923371156 673.075195312 517.303815028 670.525390625 582.375 671.375 c 0
 617.224609375 671.375 638.474609375 672.224609375 690.325195312 679.025390625 c 1
 690.325195312 679.025390625 694.575195312 639.924804688 697.125 623.775390625 c 1
 654.625 629.724609375 614.626953125 607.819335938 612.125 562.575195312 c 0
 604.426757812 423.369140625 611.216796875 293.657226562 603.625 203.025390625 c 0
 590.025390625 40.6748046875 462.525390625 -12.875 352.875 -12.875 c 0
 246.880859375 -12.875 95.724609375 24.525390625 95.724609375 198.775390625 c 0
 95.724609375 304.174804688 105.075195312 471.625 101.674804688 543.025390625 c 0
 98.275390625 603.375 88.0751953125 628.025390625 17.525390625 618.674804688 c 1
 14.974609375 632.275390625 11.5751953125 671.375 9.875 679.025390625 c 1
EndSplineSet
EndChar

StartChar: V.sc
Encoding: 292 -1 207
GlifName: V_.sc
Width: 776
VWidth: 79
Flags: HMW
LayerCount: 3
Fore
SplineSet
10.0751953125 677.349609375 m 1
 105.275390625 673.099609375 253.974609375 672.25 323.674804688 677.349609375 c 1
 332.174804688 622.950195312 l 1
 271.825195312 632.299804688 228.474609375 622.099609375 242.075195312 571.950195312 c 0
 270.974609375 470.799804688 331.325195312 324.599609375 367.875 206.450195312 c 0
 374.674804688 173.299804688 378.974609375 106.150390625 385.775390625 71.2998046875 c 1
 445.275390625 233.650390625 546.424804688 500.549804688 559.174804688 554.099609375 c 0
 577.025390625 635.700195312 507.325195312 634.849609375 466.525390625 634 c 1
 458.025390625 677.349609375 l 1
 552.375 673.950195312 656.875 669.700195312 744.424804688 677.349609375 c 1
 752.924804688 625.5 l 1
 684.075195312 633.150390625 665.375 604.25 649.224609375 561.75 c 0
 570.174804688 362.849609375 491.974609375 158 445.224609375 5 c 1
 412.075195312 -0.099609375 343.275390625 -10.2998046875 310.125 -21.349609375 c 1
 258.275390625 157.150390625 193.674804688 339.049804688 108.674804688 566.849609375 c 0
 94.224609375 597.450195312 76.375 639.099609375 18.5751953125 630.599609375 c 1
 10.0751953125 677.349609375 l 1
EndSplineSet
EndChar

StartChar: W.sc
Encoding: 293 -1 208
GlifName: W_.sc
Width: 1048
VWidth: 79
Flags: HMW
LayerCount: 3
Fore
SplineSet
-7.650390625 675.724609375 m 1
 90.9501953125 672.325195312 216 669.775390625 290.799804688 675.724609375 c 1
 299.299804688 622.174804688 l 1
 246.599609375 623.875 195.599609375 620.474609375 209.200195312 570.325195312 c 0
 238.099609375 464.075195312 282.849609375 324.674804688 319.400390625 201.424804688 c 0
 326.200195312 173.375 330.900390625 131.125 335.700195312 101.375 c 1
 400.299804688 272.224609375 472.75 491.025390625 489.5 541.575195312 c 1
 578.549804688 552.625 l 1
 507 362.724609375 440.150390625 158.075195312 384.900390625 5.0751953125 c 1
 351.75 -0.025390625 290.950195312 -10.224609375 257.799804688 -21.275390625 c 1
 205.950195312 152.125 167.977539062 326.51171875 90.9501953125 548.224609375 c 0
 74.361328125 595.974609375 58.650390625 622.025390625 0.849609375 621.325195312 c 1
 -7.650390625 675.724609375 l 1
384.099609375 668.224609375 m 1
 479.299804688 668.224609375 577.700195312 668.224609375 672.900390625 668.224609375 c 1
 681.400390625 613.825195312 l 1
 626.150390625 614.674804688 586.200195312 612.974609375 599.799804688 562.825195312 c 0
 628.700195312 456.575195312 659.625 311.91796875 698.950195312 189.525390625 c 0
 704.75 171.474609375 707.049804688 113.025390625 710.849609375 83.275390625 c 1
 764.400390625 249.875 844.8046875 498.4453125 853.349609375 552.825195312 c 0
 862.700195312 612.325195312 838.049804688 619.125 771.75 618.275390625 c 1
 764.099609375 666.724609375 l 1
 855.900390625 666.724609375 950.099609375 666.724609375 1041.90039062 666.724609375 c 1
 1047.40039062 614.875 l 1
 987.049804688 614.025390625 957.240234375 594.52734375 943.700195312 551.125 c 0
 881.650390625 352.224609375 819.049804688 158.075195312 772.299804688 5.0751953125 c 1
 739.150390625 -0.025390625 677.849609375 -10.224609375 644.700195312 -21.275390625 c 1
 592.849609375 152.125 547.159076791 314.146101445 478.400390625 540.724609375 c 0
 465.700195312 582.575195312 448.700195312 623.174804688 390.900390625 621.474609375 c 1
 384.099609375 668.224609375 l 1
EndSplineSet
EndChar

StartChar: Y.sc
Encoding: 294 -1 209
GlifName: Y_.sc
Width: 664
VWidth: 79
Flags: HMW
LayerCount: 3
Fore
SplineSet
-8.4501953125 681.775390625 m 1
 88.4501953125 677.525390625 179.849609375 679.224609375 276.75 681.775390625 c 1
 288.650390625 635.875 l 1
 224.049804688 630.775390625 207.2265625 615.567382812 230 569.575195312 c 0
 250.577148438 528.017578125 275.900390625 470.125 306.5 414.875 c 1
 315.849609375 385.125 334.549804688 337.325195312 334.549804688 337.325195312 c 1
 371.950195312 398.525390625 430.583984375 473.897460938 479.900390625 565.325195312 c 0
 506.234375 614.147460938 462.049804688 630.775390625 404.25 628.224609375 c 1
 396.599609375 681.775390625 l 1
 479.049804688 676.674804688 560.650390625 678.375 643.099609375 681.775390625 c 1
 652.450195312 632.474609375 l 1
 601.450195312 630.775390625 576.799804688 603.575195312 552.150390625 562.775390625 c 0
 470.549804688 429.325195312 401.700195312 351.775390625 370.25 283.775390625 c 1
 345.599609375 281.224609375 293.450195312 258.575195312 264.549804688 250.075195312 c 1
 218.650390625 336.775390625 186.21875 408.46484375 99.5 567.875 c 0
 70.619140625 620.96484375 38.2998046875 633.325195312 -1.650390625 632.474609375 c 1
 -8.4501953125 681.775390625 l 1
180.900390625 58.724609375 m 1
 241.950195312 55.974609375 253.799804688 79.125 259.75 123.325195312 c 0
 265.700195312 166.674804688 266.549804688 221.724609375 254.650390625 327.125 c 1
 382 317.325195312 l 5
 377.299804688 196.625 375.349609375 157.724609375 384.700195312 117.775390625 c 0
 394.049804688 76.125 411.900390625 55.775390625 456.099609375 58.724609375 c 1
 473.950195312 0.0751953125 l 1
 187.700195312 -0.775390625 l 1
 180.900390625 58.724609375 l 1
EndSplineSet
EndChar

StartChar: aogonek
Encoding: 158 261 215
Width: 622
VWidth: 0
Flags: HW
LayerCount: 3
Fore
SplineSet
355 -167.932617188 m 4
 356.672851562 -46.408203125 514.99609375 40.189453125 560 42.0673828125 c 5
 581 45.291015625 572 43.66015625 593 44.0673828125 c 5
 603 14.0673828125 l 21
 546 -8.9326171875 454 -67.9326171875 454 -149.932617188 c 4
 454 -194.932617188 481.999023438 -222.989257812 537 -223.932617188 c 4
 572.236328125 -224.537109375 597 -215.932617188 619 -202.932617188 c 13
 637 -244.932617188 l 21
 615 -258.932617188 571.697469517 -282.710402862 510 -281.932617188 c 4
 398.759765625 -280.530273438 354.142578125 -230.2265625 355 -167.932617188 c 4
EndSplineSet
Refer: 1 97 N 1 0 0 1 0 0 2
EndChar

StartChar: eogonek
Encoding: 172 281 227
Width: 610
VWidth: 0
Flags: HW
LayerCount: 3
Fore
SplineSet
188.5 -154.940429688 m 0
 189.941838863 -38.4131181991 333.49609375 18.181640625 378.5 30.0595703125 c 1
 399.5 29.283203125 420.5 44.65234375 441.5 45.0595703125 c 1
 453.5 9.0595703125 l 21
 396.5 -13.9404296875 302.5 -59.9404296875 302.5 -141.940429688 c 0
 302.5 -225.423536253 413.259309545 -227.905688609 482.5 -201.940429688 c 9
 507.5 -250.940429688 l 17
 485.5 -260.940429688 427.198242188 -282.654296875 365.5 -281.940429688 c 0
 244.259765625 -280.538085938 187.605481598 -227.234100727 188.5 -154.940429688 c 0
EndSplineSet
Refer: 5 101 N 1 0 0 1 0 0 3
EndChar

StartChar: asterix
Encoding: 305 42 305
Width: 375
VWidth: 79
Flags: HW
LayerCount: 3
Fore
SplineSet
29 652 m 1
 56 690 103 737 142 761 c 1
 141 769 155 724 154 732 c 1
 134 773 67 829 35 848 c 1
 59 871 l 1
 96 859 155 838 200 791 c 1
 171 789 l 1
 200 812 249 890 258 918 c 1
 271 910 275 908 286 901 c 1
 279 865 270 813 236 758 c 1
 237 775 l 1
 267 756 330 741 367 736 c 1
 369 720 370 715 372 702 c 1
 336 694 253 699 224 711 c 1
 233 728 l 1
 234 685 252 630 268 584 c 1
 231 576 l 1
 204 597 169 683 165 715 c 1
 186 706 l 1
 140 692 90 662 50 626 c 1
 29 652 l 1
EndSplineSet
EndChar

StartChar: X.sc
Encoding: 309 -1 308
Width: 683
VWidth: 79
Flags: HW
LayerCount: 3
Fore
SplineSet
6.1162109375 64.1015625 m 1
 66.3935546875 62.91796875 107.907226562 96.912109375 136.349609375 132.645507812 c 0
 168.172851562 172.626953125 249.233398438 282.9609375 297.428710938 351.268554688 c 1
 313.421875 361.549804688 l 1
 360.010742188 423.620117188 417.048828125 508.639648438 449.3671875 563.760742188 c 0
 465.877929688 591.921875 463.076171875 624.491210938 393.389648438 625.450195312 c 1
 380.823242188 680.709960938 l 1
 469.9453125 673.854492188 573.359375 673.854492188 652.713867188 679.567382812 c 1
 661.853515625 628.877929688 l 1
 599.209960938 625.450195312 568.493164062 589.895507812 529.334960938 538.627929688 c 0
 477.306640625 470.510742188 411.413085938 366.5390625 377.395507812 320.423828125 c 1
 365.971679688 311.284179688 l 1
 320.275390625 262.259765625 268.5546875 191.1640625 231.168945312 132.645507812 c 0
 205.283203125 92.12890625 195.2578125 56.10546875 276.865234375 59.53125 c 1
 290.573242188 0.1279296875 l 1
 16.3974609375 0.1279296875 l 1
 6.1162109375 64.1015625 l 1
7.2587890625 679.567382812 m 1
 119.381835938 672.712890625 202.584960938 672.712890625 290.8515625 678.424804688 c 1
 302.275390625 621.592773438 l 1
 237.482421875 620.33203125 222.203125 595.416015625 249.725585938 548.479492188 c 0
 273.107421875 508.604492188 320.319335938 432.235351562 356.256835938 380.828125 c 1
 372.25 360.264648438 l 1
 411.33984375 307.5546875 475.708007812 215.427734375 535.854492188 136.072265625 c 4
 576.158947601 82.8957751734 609 69.8916015625 646.138671875 68.6708984375 c 1
 663.274414062 0.1279296875 l 1
 365.971679688 0.1279296875 l 1
 355.689453125 62.958984375 l 1
 418.522460938 61.775390625 455.5625 78.3388671875 416.522460938 134.9296875 c 4
 378.351574137 190.260620766 329.225585938 265.650390625 288.71875 320.99609375 c 5
 279.580078125 319.853515625 l 1
 244.374023438 378.743164062 185.803710938 462.892578125 136.349609375 541.625 c 0
 93.8056640625 609.354492188 58.3876953125 620.450195312 14.1123046875 619.30859375 c 1
 7.2587890625 679.567382812 l 1
EndSplineSet
EndChar

StartChar: u+2022
Encoding: 308 8226 309
Width: 304
VWidth: 0
Flags: HW
LayerCount: 3
Fore
SplineSet
41.89453125 341.98046875 m 4
 41.89453125 394.514648438 85.1201171875 437.740234375 137.655273438 437.740234375 c 4
 190.190429688 437.740234375 233.415039062 394.514648438 233.415039062 341.98046875 c 4
 233.415039062 289.4453125 190.190429688 246.219726562 137.655273438 246.219726562 c 4
 85.1201171875 246.219726562 41.89453125 289.4453125 41.89453125 341.98046875 c 4
EndSplineSet
EndChar
